<svg width="72" height="87" viewBox="0 0 72 87" fill="none" xmlns="http://www.w3.org/2000/svg">
<path d="M68.0671 58.6764V27.6281C68.0659 26.2669 67.736 24.93 67.1106 23.7516C66.4853 22.5731 65.5864 21.5945 64.5042 20.9139L39.5636 5.38977C38.4803 4.70851 37.2515 4.34985 36.0006 4.34985C34.7498 4.34985 33.5209 4.70851 32.4377 5.38977L7.49703 20.9139C6.41483 21.5945 5.51596 22.5731 4.8906 23.7516C4.26523 24.93 3.93536 26.2669 3.93408 27.6281V58.6764C3.93536 60.0376 4.26523 61.3744 4.8906 62.5529C5.51596 63.7314 6.41483 64.71 7.49703 65.3906L32.4377 80.9147C33.5209 81.596 34.7498 81.9546 36.0006 81.9546C37.2515 81.9546 38.4803 81.596 39.5636 80.9147L64.5042 65.3906C65.5864 64.71 66.4853 63.7314 67.1106 62.5529C67.736 61.3744 68.0659 60.0376 68.0671 58.6764Z" stroke="#53B124" stroke-width="7.81981" stroke-linecap="round" stroke-linejoin="round"/>
<path d="M19.9668 12.9194L36.0001 23.0102L52.0333 12.9194" stroke="#53B124" stroke-width="7.81981" stroke-linecap="round" stroke-linejoin="round"/>
<path d="M19.9668 73.3855V53.2431L3.93359 43.1526" stroke="#53B124" stroke-width="7.81981" stroke-linecap="round" stroke-linejoin="round"/>
<path d="M68.067 43.1526L52.0337 53.2431V73.3855" stroke="#53B124" stroke-width="7.81981" stroke-linecap="round" stroke-linejoin="round"/>
<path d="M4.89648 23.5916L36.0009 43.1908L67.1054 23.5916" stroke="#53B124" stroke-width="7.81981" stroke-linecap="round" stroke-linejoin="round"/>
<path d="M36.0005 82.2733V43.1526" stroke="#53B124" stroke-width="7.81981" stroke-linecap="round" stroke-linejoin="round"/>
</svg>
