<svg width="262" height="612" viewBox="0 0 262 612" fill="none" xmlns="http://www.w3.org/2000/svg">
<g clip-path="url(#clip0)">
<path d="M167.704 608.897C168.927 609.594 168.927 610.744 167.704 611.476C166.482 612.173 164.491 612.173 163.234 611.476C162.012 610.779 162.012 609.629 163.234 608.897C164.491 608.166 166.482 608.166 167.704 608.897Z" fill="#16110D"/>
<path d="M144.376 608.897C145.599 609.594 145.599 610.744 144.376 611.476C143.154 612.173 141.163 612.173 139.906 611.476C138.684 610.779 138.684 609.629 139.906 608.897C141.163 608.166 143.154 608.166 144.376 608.897Z" fill="#16110D"/>
<path d="M156.04 602.172C157.263 602.869 157.263 604.019 156.04 604.75C154.818 605.447 152.827 605.447 151.57 604.75C150.348 604.054 150.348 602.904 151.57 602.172C152.827 601.44 154.818 601.44 156.04 602.172Z" fill="#16110D"/>
<path d="M130.475 605.274C132.211 605.274 133.618 604.463 133.618 603.462C133.618 602.461 132.211 601.65 130.475 601.65C128.739 601.65 127.332 602.461 127.332 603.462C127.332 604.463 128.739 605.274 130.475 605.274Z" fill="#16110D"/>
<path d="M144.376 595.447C145.599 596.144 145.599 597.294 144.376 598.026C143.154 598.722 141.163 598.722 139.906 598.026C138.684 597.329 138.684 596.179 139.906 595.447C141.163 594.75 143.154 594.75 144.376 595.447Z" fill="#16110D"/>
<path d="M120.943 595.377C122.165 596.074 122.165 597.224 120.943 597.956C119.72 598.653 117.73 598.653 116.472 597.956C115.25 597.259 115.25 596.109 116.472 595.377C117.73 594.68 119.72 594.68 120.943 595.377Z" fill="#16110D"/>
<path d="M132.607 588.653C133.829 589.349 133.829 590.499 132.607 591.231C131.384 591.928 129.394 591.928 128.136 591.231C126.914 590.534 126.914 589.384 128.136 588.653C129.394 587.956 131.384 587.956 132.607 588.653Z" fill="#16110D"/>
<path d="M107.042 591.754C108.778 591.754 110.185 590.943 110.185 589.942C110.185 588.941 108.778 588.13 107.042 588.13C105.306 588.13 103.898 588.941 103.898 589.942C103.898 590.943 105.306 591.754 107.042 591.754Z" fill="#16110D"/>
<path d="M120.943 581.927C122.165 582.624 122.165 583.774 120.943 584.506C119.72 585.202 117.73 585.202 116.472 584.506C115.25 583.809 115.25 582.659 116.472 581.927C117.73 581.23 119.72 581.23 120.943 581.927Z" fill="#16110D"/>
<path d="M97.6136 581.927C98.8359 582.624 98.8359 583.774 97.6136 584.506C96.3913 585.202 94.4006 585.202 93.1433 584.506C91.921 583.809 91.921 582.659 93.1433 581.927C94.4006 581.23 96.3913 581.23 97.6136 581.927Z" fill="#16110D"/>
<path d="M109.279 575.201C110.501 575.898 110.501 577.048 109.279 577.78C108.056 578.477 106.066 578.477 104.808 577.78C103.586 577.083 103.586 575.933 104.808 575.201C106.066 574.504 108.056 574.504 109.279 575.201Z" fill="#16110D"/>
<path d="M85.9476 575.201C87.1699 575.898 87.1699 577.048 85.9476 577.78C84.7252 578.477 82.7346 578.477 81.4773 577.78C80.255 577.083 80.255 575.933 81.4773 575.201C82.7346 574.504 84.7252 574.504 85.9476 575.201Z" fill="#16110D"/>
<path d="M95.3775 571.578C97.1135 571.578 98.5207 570.767 98.5207 569.766C98.5207 568.765 97.1135 567.954 95.3775 567.954C93.6416 567.954 92.2344 568.765 92.2344 569.766C92.2344 570.767 93.6416 571.578 95.3775 571.578Z" fill="#16110D"/>
<path d="M74.2835 568.477C75.5059 569.174 75.5059 570.324 74.2835 571.055C73.0612 571.752 71.0705 571.752 69.8132 571.055C68.5909 570.358 68.5909 569.209 69.8132 568.477C71.0705 567.78 73.0612 567.78 74.2835 568.477Z" fill="#16110D"/>
<path d="M85.9476 561.786C87.1699 562.483 87.1699 563.633 85.9476 564.364C84.7252 565.061 82.7346 565.061 81.4773 564.364C80.255 563.667 80.255 562.517 81.4773 561.786C82.7346 561.054 84.7252 561.054 85.9476 561.786Z" fill="#16110D"/>
<path d="M60.3844 564.853C62.1203 564.853 63.5275 564.041 63.5275 563.041C63.5275 562.04 62.1203 561.229 60.3844 561.229C58.6485 561.229 57.2412 562.04 57.2412 563.041C57.2412 564.041 58.6485 564.853 60.3844 564.853Z" fill="#16110D"/>
<path d="M74.2835 555.06C75.5059 555.757 75.5059 556.907 74.2835 557.639C73.0612 558.336 71.0705 558.336 69.8132 557.639C68.5909 556.942 68.5909 555.792 69.8132 555.06C71.0705 554.328 73.0612 554.328 74.2835 555.06Z" fill="#16110D"/>
<path d="M50.9544 555.06C52.1768 555.757 52.1768 556.907 50.9544 557.639C49.7321 558.336 47.7414 558.336 46.4841 557.639C45.2618 556.942 45.2618 555.792 46.4841 555.06C47.7065 554.328 49.7321 554.328 50.9544 555.06Z" fill="#16110D"/>
<path d="M62.6185 548.335C63.8408 549.032 63.8408 550.182 62.6185 550.914C61.3961 551.611 59.4055 551.611 58.1482 550.914C56.9259 550.217 56.9259 549.067 58.1482 548.335C59.4055 547.604 61.3961 547.604 62.6185 548.335Z" fill="#16110D"/>
<path d="M39.2904 548.335C40.5127 549.032 40.5127 550.182 39.2904 550.914C38.068 551.611 36.0773 551.611 34.8201 550.914C33.5977 550.217 33.5977 549.067 34.8201 548.335C36.0424 547.604 38.068 547.604 39.2904 548.335Z" fill="#16110D"/>
<path d="M50.9544 541.611C52.1768 542.308 52.1768 543.457 50.9544 544.189C49.7321 544.886 47.7414 544.886 46.4841 544.189C45.2618 543.492 45.2618 542.342 46.4841 541.611C47.7065 540.914 49.7321 540.914 50.9544 541.611Z" fill="#16110D"/>
<path d="M39.1849 534.815C40.4072 535.512 40.4072 536.662 39.1849 537.394C37.9625 538.091 35.9719 538.091 34.7146 537.394C33.4923 536.697 33.4923 535.547 34.7146 534.815C35.9719 534.118 37.9625 534.118 39.1849 534.815Z" fill="#16110D"/>
<path d="M174.935 602.277C176.158 601.58 178.148 601.58 179.406 602.277C180.628 602.974 180.628 604.123 179.406 604.855C178.183 605.552 176.193 605.552 174.935 604.855C173.713 604.123 173.713 602.974 174.935 602.277Z" fill="#16110D"/>
<path d="M191.105 595.517C192.327 596.214 192.327 597.364 191.105 598.095C189.882 598.792 187.892 598.792 186.635 598.095C185.412 597.399 185.412 596.249 186.635 595.517C187.857 594.82 189.848 594.82 191.105 595.517Z" fill="#16110D"/>
<path d="M202.769 591.371C201.547 592.068 199.556 592.068 198.299 591.371C197.076 590.674 197.076 589.524 198.299 588.792C199.521 588.095 201.512 588.095 202.769 588.792C203.991 589.524 203.991 590.674 202.769 591.371Z" fill="#16110D"/>
<path d="M214.433 582.101C215.655 582.798 215.655 583.948 214.433 584.68C213.211 585.377 211.22 585.377 209.963 584.68C208.74 583.983 208.74 582.833 209.963 582.101C211.185 581.369 213.176 581.369 214.433 582.101Z" fill="#16110D"/>
<path d="M226.097 575.375C227.319 576.072 227.319 577.222 226.097 577.954C224.875 578.651 222.884 578.651 221.627 577.954C220.404 577.257 220.404 576.107 221.627 575.375C222.849 574.644 224.84 574.644 226.097 575.375Z" fill="#16110D"/>
<path d="M237.764 568.651C238.986 569.348 238.986 570.497 237.764 571.229C236.542 571.926 234.551 571.926 233.294 571.229C232.071 570.532 232.071 569.382 233.294 568.651C234.516 567.954 236.542 567.954 237.764 568.651Z" fill="#16110D"/>
<path d="M249.428 561.925C250.65 562.621 250.65 563.771 249.428 564.503C248.206 565.2 246.215 565.2 244.958 564.503C243.735 563.806 243.735 562.656 244.958 561.925C246.18 561.228 248.206 561.228 249.428 561.925Z" fill="#16110D"/>
<path d="M261.092 555.2C262.314 555.897 262.314 557.047 261.092 557.779C259.87 558.476 257.879 558.476 256.622 557.779C255.399 557.082 255.399 555.932 256.622 555.2C257.844 554.504 259.87 554.504 261.092 555.2Z" fill="#16110D"/>
<path d="M163.269 595.552C164.492 594.855 166.482 594.855 167.74 595.552C168.962 596.249 168.962 597.399 167.74 598.131C166.517 598.827 164.527 598.827 163.269 598.131C162.047 597.399 162.047 596.249 163.269 595.552Z" fill="#16110D"/>
<path d="M179.44 588.827C180.662 589.524 180.662 590.673 179.44 591.405C178.217 592.102 176.227 592.102 174.969 591.405C173.747 590.708 173.747 589.558 174.969 588.827C176.192 588.095 178.183 588.095 179.44 588.827Z" fill="#16110D"/>
<path d="M191.105 582.101C192.327 582.798 192.327 583.948 191.105 584.68C189.882 585.377 187.892 585.377 186.635 584.68C185.412 583.983 185.412 582.833 186.635 582.101C187.857 581.369 189.848 581.369 191.105 582.101Z" fill="#16110D"/>
<path d="M202.769 575.375C203.991 576.072 203.991 577.222 202.769 577.954C201.547 578.651 199.556 578.651 198.299 577.954C197.076 577.257 197.076 576.107 198.299 575.375C199.521 574.644 201.512 574.644 202.769 575.375Z" fill="#16110D"/>
<path d="M214.433 568.651C215.655 569.348 215.655 570.497 214.433 571.229C213.211 571.926 211.22 571.926 209.963 571.229C208.74 570.532 208.74 569.382 209.963 568.651C211.185 567.954 213.176 567.954 214.433 568.651Z" fill="#16110D"/>
<path d="M226.097 561.925C227.319 562.621 227.319 563.771 226.097 564.503C224.875 565.2 222.884 565.2 221.627 564.503C220.404 563.806 220.404 562.656 221.627 561.925C222.849 561.228 224.84 561.228 226.097 561.925Z" fill="#16110D"/>
<path d="M237.764 555.2C238.986 555.897 238.986 557.047 237.764 557.779C236.542 558.476 234.551 558.476 233.294 557.779C232.071 557.082 232.071 555.932 233.294 555.2C234.516 554.504 236.542 554.504 237.764 555.2Z" fill="#16110D"/>
<path d="M249.428 548.474C250.65 549.171 250.65 550.321 249.428 551.053C248.206 551.75 246.215 551.75 244.958 551.053C243.735 550.356 243.735 549.206 244.958 548.474C246.18 547.777 248.206 547.777 249.428 548.474Z" fill="#16110D"/>
<path d="M258.858 544.852C260.594 544.852 262.001 544.04 262.001 543.039C262.001 542.039 260.594 541.228 258.858 541.228C257.122 541.228 255.715 542.039 255.715 543.039C255.715 544.04 257.122 544.852 258.858 544.852Z" fill="#16110D"/>
<path d="M151.604 588.826C152.827 588.129 154.817 588.129 156.075 588.826C157.297 589.523 157.297 590.673 156.075 591.405C154.852 592.102 152.862 592.102 151.604 591.405C150.382 590.673 150.382 589.523 151.604 588.826Z" fill="#16110D"/>
<path d="M167.74 582.101C168.962 582.798 168.962 583.948 167.74 584.68C166.517 585.377 164.527 585.377 163.269 584.68C162.047 583.983 162.047 582.833 163.269 582.101C164.527 581.369 166.517 581.369 167.74 582.101Z" fill="#16110D"/>
<path d="M179.44 575.375C180.662 576.072 180.662 577.222 179.44 577.954C178.217 578.651 176.227 578.651 174.969 577.954C173.747 577.257 173.747 576.107 174.969 575.375C176.192 574.644 178.183 574.644 179.44 575.375Z" fill="#16110D"/>
<path d="M191.105 568.651C192.327 569.348 192.327 570.497 191.105 571.229C189.882 571.926 187.892 571.926 186.635 571.229C185.412 570.532 185.412 569.382 186.635 568.651C187.857 567.954 189.848 567.954 191.105 568.651Z" fill="#16110D"/>
<path d="M202.769 561.925C203.991 562.621 203.991 563.771 202.769 564.503C201.547 565.2 199.556 565.2 198.299 564.503C197.076 563.806 197.076 562.656 198.299 561.925C199.521 561.228 201.512 561.228 202.769 561.925Z" fill="#16110D"/>
<path d="M214.433 555.2C215.655 555.897 215.655 557.047 214.433 557.779C213.211 558.476 211.22 558.476 209.963 557.779C208.74 557.082 208.74 555.932 209.963 555.2C211.185 554.504 213.176 554.504 214.433 555.2Z" fill="#16110D"/>
<path d="M226.097 548.474C227.319 549.171 227.319 550.321 226.097 551.053C224.875 551.75 222.884 551.75 221.627 551.053C220.404 550.356 220.404 549.206 221.627 548.474C222.849 547.777 224.84 547.777 226.097 548.474Z" fill="#16110D"/>
<path d="M237.764 541.75C238.986 542.447 238.986 543.597 237.764 544.329C236.542 545.026 234.551 545.026 233.294 544.329C232.071 543.632 232.071 542.482 233.294 541.75C234.516 541.053 236.542 541.053 237.764 541.75Z" fill="#16110D"/>
<path d="M249.428 535.059C250.65 535.756 250.65 536.906 249.428 537.638C248.206 538.335 246.215 538.335 244.958 537.638C243.735 536.941 243.735 535.791 244.958 535.059C246.18 534.327 248.206 534.327 249.428 535.059Z" fill="#16110D"/>
<path d="M139.835 582.031C141.057 581.334 143.048 581.334 144.305 582.031C145.527 582.728 145.527 583.878 144.305 584.61C143.083 585.307 141.092 585.307 139.835 584.61C138.612 583.878 138.612 582.728 139.835 582.031Z" fill="#16110D"/>
<path d="M168.718 211.759C170.01 200.015 161.698 184.788 146.716 173.776C131.768 162.765 114.725 159.28 103.864 163.985L101.804 162.486L96.4951 169.665C87.799 181.408 96.1808 202.315 115.214 216.323C134.248 230.366 156.739 232.213 165.435 220.47L170.744 213.292L168.718 211.759Z" fill="#C7E7F1"/>
<path d="M114.83 216.846C95.5172 202.594 87.0655 181.233 95.9712 169.211L101.699 161.51L104.004 163.183C115.354 158.514 132.641 162.521 147.17 173.219C161.698 183.916 170.604 199.249 169.486 211.445L171.756 213.117L166.029 220.818C157.088 232.875 134.143 231.063 114.83 216.846ZM101.943 163.392L97.0538 170.013C88.6022 181.442 96.949 201.932 115.633 215.731C134.353 229.53 156.425 231.446 164.911 220.017L169.801 213.396L167.984 212.072L168.019 211.689C169.347 199.876 160.616 184.857 146.297 174.334C131.978 163.775 115.04 159.873 104.108 164.612L103.759 164.751L101.943 163.392Z" fill="#16110D"/>
<path d="M170.779 213.257C162.083 225 139.592 223.153 120.558 209.11C101.525 195.067 93.1428 174.194 101.839 162.451C110.535 150.708 133.026 152.555 152.06 166.598C171.058 180.641 179.475 201.514 170.779 213.257Z" fill="#C7E7F1"/>
<path d="M169.521 214.963C160.825 226.706 138.334 224.86 119.3 210.817C100.267 196.774 91.885 175.901 100.581 164.158C109.277 152.415 131.768 154.262 150.802 168.305C169.835 182.313 178.217 203.22 169.521 214.963Z" fill="#ECFAFF"/>
<path d="M120.14 209.667C100.827 195.415 92.3751 174.055 101.281 162.033C110.186 150.011 133.131 151.823 152.444 166.04C171.757 180.292 180.209 201.653 171.303 213.675C162.398 225.697 139.453 223.919 120.14 209.667ZM151.641 167.155C132.922 153.356 110.85 151.44 102.398 162.869C93.9467 174.299 102.294 194.788 120.978 208.587C139.697 222.386 161.769 224.303 170.221 212.873C178.672 201.444 170.326 180.954 151.641 167.155Z" fill="#16110D"/>
<path d="M164.526 207.193C157.996 216.009 140.359 214.093 125.167 202.907C109.975 191.687 102.92 175.448 109.486 166.632C116.017 157.816 133.653 159.733 148.845 170.918C164.037 182.104 171.057 198.377 164.526 207.193Z" fill="#C7E7F1"/>
<path d="M124.749 203.43C109.277 192 102.153 175.309 108.928 166.179C115.668 157.05 133.759 158.931 149.265 170.326C164.737 181.755 171.861 198.447 165.086 207.576C158.311 216.741 140.22 214.859 124.749 203.43ZM148.427 171.476C133.549 160.499 116.332 158.513 110.011 167.016C103.689 175.518 110.674 191.373 125.552 202.349C140.43 213.326 157.647 215.312 163.968 206.81C170.29 198.272 163.305 182.418 148.427 171.476Z" fill="#16110D"/>
<path d="M148.847 170.919C133.655 159.698 116.019 157.782 109.488 166.633C108.894 167.434 108.475 168.305 108.091 169.211C115.774 162.904 131.56 165.413 145.425 175.588C159.255 185.798 166.274 200.154 162.502 209.319C163.271 208.692 163.969 208.03 164.563 207.228C171.059 198.377 164.039 182.104 148.847 170.919Z" fill="#C7E7F1"/>
<path d="M161.314 210.19L161.872 209.04C165.574 200.085 158.31 185.937 145.004 176.145C131.698 166.354 116.017 163.566 108.508 169.734L107.286 170.744L107.426 168.967C107.88 167.887 108.334 167.016 108.893 166.249C115.633 157.119 133.724 159.001 149.23 170.396C164.701 181.825 171.826 198.517 165.05 207.646C164.492 208.413 163.793 209.11 162.885 209.841L161.314 210.19ZM148.427 171.476C133.549 160.5 116.331 158.513 110.01 167.016C109.975 167.051 109.975 167.085 109.94 167.12C118.532 162.555 132.99 165.587 145.807 175.03C158.59 184.439 165.784 197.367 163.933 206.914C163.968 206.88 163.968 206.845 164.003 206.81C170.289 198.273 163.304 182.418 148.427 171.476Z" fill="#16110D"/>
<path d="M143.992 167.886L140.675 172.416L131.909 168.2L121.955 165.865L112.98 166.632L108.056 169.176L110.71 164.959L116.542 161.893L123.562 161.091L132.887 162.729L142.7 166.945L143.992 167.886Z" fill="#191410"/>
<path d="M145.702 205.799C147.518 205.52 148.845 204.893 149.718 203.882L149.753 203.952L152.023 200.886L150.556 198.481C150.381 197.819 150.137 197.157 149.823 196.425C148.67 193.916 147.029 191.791 144.829 190.049C142.628 188.306 139.311 186.738 134.805 185.344L130.684 176.284C132.605 177.086 134.177 178.41 135.399 180.292L141.441 180.152L143.536 177.33L137.355 175.378V175.448C136.901 175.065 136.412 174.681 135.888 174.333C133.688 172.8 131.173 171.754 128.344 171.197L127.821 170.012H128.379L129.357 168.688L125.76 165.726L122.477 170.186L124.398 170.152L124.712 170.883C123.839 170.883 123.071 170.988 122.372 171.127C121.883 170.43 121.499 169.908 121.499 169.908L119.09 173.183C118.112 174.716 118.216 176.772 119.369 179.316C120.486 181.825 122.233 184.02 124.573 185.937C126.912 187.853 129.916 189.386 133.618 190.571L138.018 200.258C136.936 199.771 135.818 199.039 134.666 198.063C133.932 197.436 133.304 196.739 132.71 196.007L133.339 195.519L127.506 191.861L125.411 194.683C127.297 197.784 129.532 200.224 132.116 202.07C134.701 203.917 137.494 205.137 140.568 205.764L142.489 209.98L146.156 210.329L148.251 207.506L145.702 205.799ZM127.401 181.929C126.528 181.163 125.935 180.396 125.55 179.56C125.131 178.654 125.062 177.887 125.306 177.19C125.55 176.493 126.109 176.075 126.982 175.866L130.614 183.881C129.322 183.323 128.275 182.661 127.401 181.929ZM141.825 200.851L137.739 191.826C139.45 192.383 140.777 193.045 141.79 193.882C142.803 194.683 143.536 195.624 143.99 196.669C144.514 197.819 144.584 198.795 144.165 199.562C143.781 200.328 143.012 200.746 141.825 200.851Z" fill="#C7E7F1"/>
<path d="M142.001 210.573L140.081 206.322C137.077 205.66 134.248 204.406 131.699 202.594C129.079 200.712 126.74 198.133 124.819 194.997L124.574 194.614L127.333 190.92L134.528 195.415L133.689 196.078C134.178 196.635 134.632 197.088 135.121 197.506C135.61 197.924 136.099 198.273 136.553 198.586L133.131 191.06C129.499 189.875 126.495 188.272 124.155 186.39C121.745 184.439 119.929 182.139 118.742 179.526C117.485 176.773 117.415 174.508 118.497 172.766L120.977 169.385L122.06 169.525L125.587 164.751L130.232 168.584L128.8 170.605C131.559 171.197 134.039 172.278 136.239 173.776C136.693 174.09 137.112 174.403 137.531 174.752L144.621 176.982L141.757 180.85L134.982 180.989L134.772 180.676C134.039 179.526 133.131 178.62 132.118 177.888L135.261 184.787C139.661 186.181 143.014 187.784 145.214 189.526C147.484 191.338 149.231 193.569 150.383 196.147C150.697 196.844 150.942 197.541 151.151 198.203L152.793 200.921L150.243 204.336L149.51 204.963C148.916 205.451 148.183 205.834 147.345 206.113L149.126 207.298L146.367 211.026L142.001 210.573ZM141.023 205.103L142.909 209.284L145.808 209.563L147.24 207.612L143.852 205.347L145.599 205.068C147.24 204.824 148.427 204.266 149.196 203.36L149.824 202.629L151.221 200.747L149.894 198.621C149.72 197.994 149.475 197.332 149.196 196.67C148.113 194.266 146.507 192.244 144.411 190.572C142.316 188.899 138.998 187.331 134.597 185.972L134.318 185.868L129.359 174.961L130.965 175.623C132.886 176.424 134.528 177.749 135.785 179.561L141.128 179.456L142.455 177.679L137.915 176.25L137.845 176.633L136.937 175.937C136.483 175.553 136.029 175.17 135.54 174.856C133.41 173.393 130.965 172.347 128.276 171.825L127.927 171.755L126.809 169.316L128.067 169.281L128.451 168.758L125.797 167.295L123.911 169.385L124.889 169.351L125.832 171.441H124.749C124.015 171.441 123.317 171.511 122.549 171.685L122.095 171.79L121.536 170.954L119.685 173.462C118.882 174.752 118.986 176.599 120.034 178.898C121.117 181.303 122.793 183.428 125.063 185.24C127.298 187.087 130.302 188.586 133.899 189.77L134.178 189.875L139.452 201.479L137.81 200.747C136.658 200.224 135.471 199.458 134.283 198.447C133.585 197.855 132.956 197.193 132.223 196.321L131.769 195.764L132.188 195.45L127.717 192.663L126.286 194.614C128.067 197.437 130.162 199.771 132.537 201.444C135.017 203.221 137.776 204.441 140.744 204.998L141.023 205.103ZM141.408 201.548L136.483 190.676L137.95 191.164C139.731 191.722 141.163 192.454 142.211 193.325C143.294 194.196 144.097 195.206 144.621 196.356C145.249 197.715 145.284 198.9 144.795 199.841C144.271 200.851 143.294 201.409 141.897 201.514L141.408 201.548ZM139.033 193.046L142.246 200.12C142.909 199.98 143.328 199.702 143.573 199.249C143.887 198.656 143.817 197.89 143.363 196.949C142.944 196.008 142.246 195.172 141.338 194.44C140.744 193.882 139.976 193.429 139.033 193.046ZM127.613 182.975C127.368 182.801 127.159 182.627 126.949 182.453C126.006 181.651 125.343 180.78 124.923 179.874C124.435 178.829 124.365 177.853 124.679 176.982C124.923 176.355 125.482 175.553 126.809 175.205L127.368 175.065L131.943 185.171L130.337 184.509C129.324 184.056 128.416 183.533 127.613 182.975ZM127.857 181.407C128.241 181.756 128.695 182.069 129.219 182.383L126.635 176.703C126.216 176.912 126.076 177.191 125.971 177.435C125.797 177.923 125.866 178.55 126.181 179.282C126.53 180.014 127.089 180.71 127.857 181.407Z" fill="#16110D"/>
<path d="M140.116 197.331L135.716 187.644C132.014 186.459 129.01 184.926 126.67 183.01C124.33 181.093 122.584 178.898 121.467 176.389C120.314 173.845 120.209 171.824 121.187 170.256C122.165 168.723 124.016 167.956 126.81 167.956L125.762 165.656L129.429 166.005L130.477 168.305C133.271 168.862 135.785 169.907 138.021 171.441C140.221 172.974 142.072 174.925 143.573 177.295L137.532 177.434C136.309 175.587 134.738 174.228 132.817 173.427L136.938 182.487C141.443 183.881 144.796 185.449 146.961 187.191C149.161 188.933 150.803 191.059 151.955 193.568C153.212 196.356 153.352 198.621 152.374 200.363C151.396 202.105 149.371 203.011 146.263 203.116L148.218 207.437L144.551 207.088L142.631 202.872C139.557 202.245 136.763 201.025 134.179 199.178C131.595 197.331 129.359 194.857 127.473 191.791H133.76C134.598 193.045 135.576 194.16 136.728 195.136C137.916 196.112 139.033 196.843 140.116 197.331ZM129.08 173.044C128.242 173.253 127.683 173.706 127.404 174.368C127.159 175.065 127.229 175.831 127.648 176.737C128.032 177.539 128.626 178.34 129.499 179.107C130.372 179.873 131.42 180.501 132.712 181.058L129.08 173.044ZM143.923 198.028C145.075 197.924 145.878 197.505 146.263 196.739C146.682 195.972 146.612 194.997 146.088 193.847C145.634 192.801 144.866 191.895 143.888 191.059C142.875 190.258 141.548 189.561 139.837 189.003L143.923 198.028Z" fill="#C7E7F1"/>
<path d="M138.964 198.551L134.563 188.864C130.861 187.679 127.858 186.146 125.518 184.229C123.178 182.313 121.432 180.117 120.314 177.609C119.162 175.065 119.476 173.427 120.419 171.894C121.397 170.361 122.864 169.176 125.658 169.211L125.763 167.364L128.277 167.259L129.325 169.559C132.119 170.117 134.633 171.162 136.868 172.695C139.069 174.228 140.291 176.11 141.758 178.48L136.379 178.654C135.157 176.807 133.586 175.448 131.665 174.647L135.786 183.707C140.291 185.1 143.644 186.668 145.809 188.411C148.009 190.153 149.651 192.279 150.803 194.788C152.06 197.575 152.2 199.84 151.222 201.583C150.244 203.325 148.219 204.231 145.11 204.335L146.542 208.552L143.399 208.273L141.478 204.057C138.405 203.429 135.611 202.21 133.027 200.363C130.442 198.516 128.871 196.704 126.985 193.603L132.643 192.976C133.481 194.23 134.459 195.345 135.611 196.321C136.764 197.331 137.881 198.028 138.964 198.551ZM127.963 174.228C127.125 174.438 126.566 174.891 126.286 175.553C126.042 176.25 126.112 177.016 126.531 177.922C126.915 178.724 127.509 179.525 128.382 180.292C129.255 181.058 130.303 181.686 131.595 182.243L127.963 174.228ZM142.771 199.213C143.923 199.108 144.726 198.69 145.11 197.924C145.53 197.157 145.46 196.181 144.936 195.032C144.482 193.986 143.713 193.08 142.736 192.244C141.723 191.442 140.396 190.745 138.684 190.188L142.771 199.213Z" fill="#ECFAFF"/>
<path d="M144.099 207.751L142.178 203.499C139.175 202.837 136.346 201.583 133.796 199.771C131.177 197.889 128.837 195.311 126.916 192.174L126.672 191.791L127.335 190.92L129.571 191.164H134.181L134.39 191.477C135.193 192.662 136.136 193.742 137.219 194.683C137.708 195.101 138.162 195.45 138.651 195.764L135.228 188.237C131.596 187.052 128.593 185.484 126.253 183.567C123.843 181.616 122.027 179.316 120.84 176.703C119.582 173.95 119.512 171.685 120.595 169.943C121.573 168.409 123.284 167.538 125.729 167.364L124.611 164.925L129.85 165.447L130.898 167.782C133.657 168.375 136.136 169.455 138.337 170.953C140.607 172.521 143.086 174.577 144.623 176.982L143.855 178.027L137.079 178.166L136.87 177.853C136.136 176.703 135.228 175.762 134.216 175.065L137.359 181.964C141.759 183.358 145.112 184.961 147.312 186.704C149.582 188.516 151.328 190.746 152.481 193.324C153.843 196.321 153.982 198.795 152.9 200.712C151.922 202.454 150.001 203.464 147.242 203.743L149.163 207.298L148.499 208.204L144.099 207.751ZM143.121 202.28L145.007 206.461L147.417 206.705L145.217 202.489L146.229 202.454C149.058 202.349 150.909 201.548 151.747 200.05C152.62 198.516 152.446 196.46 151.293 193.882C150.211 191.477 148.604 189.422 146.509 187.784C144.413 186.111 141.096 184.543 136.695 183.184L136.416 183.08L131.457 172.173L133.063 172.835C134.984 173.636 136.625 174.96 137.883 176.772L142.667 176.668C141.375 174.856 139.419 173.288 137.603 172.033C135.473 170.57 133.028 169.524 130.339 169.002L129.99 168.932L128.977 166.667L126.881 166.458L127.859 168.653H126.777C124.262 168.618 122.586 169.281 121.748 170.605C120.909 171.929 121.014 173.776 122.062 176.076C123.145 178.48 124.821 180.605 127.091 182.417C129.361 184.264 132.33 185.763 135.927 186.947L136.206 187.087L141.48 198.691L139.838 197.959C138.686 197.436 137.498 196.67 136.311 195.659C135.228 194.718 134.25 193.673 133.412 192.488H128.732C130.409 194.997 132.399 197.122 134.565 198.656C137.044 200.433 139.803 201.652 142.772 202.21L143.121 202.28ZM143.505 198.725L138.581 187.853L140.048 188.341C141.829 188.899 143.261 189.631 144.309 190.502C145.391 191.373 146.194 192.383 146.718 193.533C147.347 194.892 147.382 196.077 146.893 197.018C146.369 198.028 145.391 198.586 143.994 198.691L143.505 198.725ZM141.13 190.223L144.343 197.297C145.007 197.157 145.426 196.879 145.671 196.426C145.985 195.833 145.915 195.067 145.461 194.126C145.042 193.185 144.343 192.349 143.435 191.617C142.842 191.059 142.073 190.606 141.13 190.223ZM129.71 180.153C129.466 179.978 129.256 179.804 129.047 179.63C128.104 178.828 127.44 177.957 127.021 177.051C126.532 176.006 126.462 175.03 126.777 174.159C127.021 173.532 127.58 172.73 128.907 172.382L129.466 172.242L134.041 182.348L132.434 181.686C131.422 181.233 130.514 180.71 129.71 180.153ZM128.732 173.88C128.313 174.089 128.174 174.368 128.069 174.612C127.894 175.135 127.964 175.727 128.278 176.459C128.593 177.191 129.186 177.888 129.955 178.584C130.339 178.933 130.793 179.246 131.317 179.56L128.732 173.88Z" fill="#16110D"/>
<path d="M124.505 211.828L119.127 219.145L128.277 223.815L137.881 227.334L149.86 228.17L159.499 225.627L164.004 222.421L168.09 216.636L158.87 221.062L147.311 220.609L132.677 216.253L124.505 211.828Z" fill="#16110D"/>
<path d="M119.267 208.273L113.959 215.452L110.815 212.734L116.403 205.207L119.267 208.273Z" fill="#16110D"/>
<path d="M250.37 355.01C250.266 351.038 245.516 342.535 232.699 335.113L163.898 295.493C152.234 288.768 134.597 288.036 124.504 293.855L97.3681 309.466C97.3681 309.466 83.4684 317.76 57.7294 332.291H57.6944C42.6422 340.793 35.2383 349.051 35.2383 356.09L35.3081 503.593C36.6003 523.944 53.0495 532.934 53.0495 532.934L121.64 572.449C133.305 579.174 150.942 579.906 161.035 574.087L232.21 533.073L232.838 532.725C235.947 530.843 250.091 521.33 250.231 501.816L250.335 356.125C250.37 355.463 250.37 355.463 250.37 355.01Z" fill="#C7E7F1"/>
<path d="M143.957 579.767C135.889 579.767 127.403 577.815 120.767 574.017L52.1765 534.502C51.513 534.153 34.8891 524.849 33.5271 503.733L33.4922 356.125C33.4922 348.18 41.5596 339.434 56.8564 330.792C82.281 316.401 96.3205 308.072 96.4602 307.968L123.596 292.322C134.178 286.224 152.653 286.956 164.772 293.96L233.572 333.58C246.11 340.793 251.977 349.713 252.151 354.94L252.047 501.816C251.872 522.41 236.82 532.446 233.781 534.258L161.943 575.62C157.158 578.408 150.697 579.767 143.957 579.767ZM141.617 291.695C135.54 291.695 129.708 292.914 125.412 295.388L98.2762 310.999C98.1715 311.069 84.0971 319.432 58.6375 333.824C44.7028 341.699 37.0544 349.609 37.0544 356.09L37.1243 503.593C38.3466 522.584 53.783 531.296 53.9577 531.366L122.583 570.881C133.724 577.293 150.627 578.024 160.197 572.519L232 531.156C234.724 529.553 248.345 520.459 248.519 501.781L248.624 355.01C248.519 351.56 243.84 343.546 231.826 336.646L163.025 297.026C156.879 293.507 149.021 291.695 141.617 291.695Z" fill="#16110D"/>
<path d="M144.585 437.734H141.022V553.004H144.585V437.734Z" fill="#16110D"/>
<path d="M124.365 293.751L97.2291 309.362C97.2291 309.362 83.3294 317.655 57.5904 332.186H57.5554C53.3646 334.555 49.2086 338.075 46.2051 340.375C45.4019 341.141 30.3846 355.811 63.2131 374.28L122.339 408.394C122.339 408.394 140.814 421.914 165.401 407.488C185.622 395.605 219.463 375.987 230.918 369.366C234.236 367.45 237.1 364.871 239.16 361.631C243.421 354.94 247.402 343.441 232.525 334.939L163.724 295.319C152.095 288.663 134.458 287.931 124.365 293.751Z" fill="#C7E7F1"/>
<path d="M123.423 308.874L96.2867 324.485C96.2867 324.485 82.387 332.778 56.648 347.309H56.6131C52.4222 349.678 48.2662 353.198 45.2627 355.498C44.4595 356.264 29.4422 370.934 62.2707 389.403L121.397 423.517C121.397 423.517 139.872 437.037 164.458 422.611C184.679 410.728 218.521 391.11 229.976 384.489C233.294 382.573 236.157 379.994 238.218 376.754C242.479 370.063 246.46 358.564 231.582 350.062L162.782 310.442C151.152 303.786 133.516 303.054 123.423 308.874Z" fill="#ECFAFF"/>
<path d="M142.63 415.92C129.813 415.92 121.432 409.962 121.327 409.857L62.3751 375.847C48.9293 368.251 41.5604 360.271 40.4777 352.117C39.5348 344.835 44.0749 339.956 45.0179 339.05C45.8211 338.423 46.4847 337.9 47.1831 337.343C49.9072 335.182 53.2948 332.534 56.7174 330.583C82.1421 316.191 96.1815 307.863 96.3212 307.758L123.457 292.113C134.039 286.015 152.514 286.746 164.668 293.75L233.468 333.37C239.51 336.82 243.212 341.106 244.434 346.124C246.006 352.466 243.282 358.564 240.732 362.571C238.602 365.881 235.563 368.774 231.896 370.899C215.447 380.412 185.063 398.044 166.379 409.021C157.543 414.248 149.441 415.92 142.63 415.92ZM125.273 295.284L98.1373 310.895C98.0325 310.964 83.9581 319.327 58.4985 333.719C55.2855 335.531 52.0376 338.109 49.3834 340.165C48.6499 340.723 47.9864 341.28 47.3228 341.768C46.7641 342.326 43.2716 346.054 44.0051 351.629C44.9131 358.494 51.863 365.777 64.1213 372.676L123.283 406.791C124.156 407.418 141.303 419.509 164.493 405.885C183.177 394.908 213.561 377.276 230.01 367.763C233.188 365.916 235.808 363.477 237.624 360.62C239.789 357.205 242.129 352.082 240.872 346.995C239.894 342.988 236.751 339.433 231.617 336.506L162.817 296.886C151.711 290.51 134.842 289.778 125.273 295.284Z" fill="#16110D"/>
<path d="M207.588 344.173C207.588 344.034 207.588 343.894 207.588 343.72V308.421L181.849 308.282C159.113 298.386 127.716 298.246 104.771 307.933L78.1592 307.794L78.1941 343.685C78.1941 343.86 78.1941 344.034 78.1941 344.208L78.229 344.696C78.5433 354 84.8297 363.234 97.1229 370.343C122.408 384.908 163.374 384.908 188.659 370.343C200.987 363.234 207.308 354.418 207.623 345.149L207.588 344.731V344.173Z" fill="#C7E7F1"/>
<path d="M142.875 382.957C125.972 382.957 109.069 379.263 96.2165 371.841C83.8185 364.697 76.7987 355.08 76.4146 344.731L76.3797 343.685L76.3447 306.017L104.389 306.156C127.508 296.539 159.359 296.713 182.199 306.539L209.335 306.679L209.37 345.044C209.021 355.359 202.141 364.593 189.533 371.876C176.681 379.263 159.778 382.957 142.875 382.957ZM79.9419 309.606L79.9768 344.556C80.2911 353.686 86.6822 362.293 97.9976 368.774C122.759 383.026 163.026 383.026 187.752 368.774C199.277 362.154 205.529 353.93 205.808 345.044L205.773 343.755V310.198L181.082 309.919C158.94 300.267 127.823 300.128 105.402 309.571L105.052 309.71L79.9419 309.606Z" fill="#16110D"/>
<path d="M188.659 281.451C213.944 296.016 213.944 319.607 188.659 334.173C163.374 348.738 122.408 348.738 97.1229 334.173C71.8379 319.607 71.8379 296.016 97.1229 281.451C122.408 266.885 163.374 266.885 188.659 281.451Z" fill="#C7E7F1"/>
<path d="M188.87 286.12C214.155 300.685 214.155 324.276 188.87 338.841C163.585 353.407 122.619 353.407 97.3339 338.841C72.0489 324.276 72.0489 300.685 97.3339 286.12C122.584 271.554 163.585 271.554 188.87 286.12Z" fill="#ECFAFF"/>
<path d="M142.874 346.856C125.971 346.856 109.068 343.162 96.2157 335.74C83.4336 328.353 76.3789 318.456 76.3789 307.828C76.3789 297.2 83.4336 287.304 96.2157 279.917C121.955 265.107 163.794 265.107 189.533 279.917C202.35 287.304 209.37 297.2 209.37 307.828C209.37 318.456 202.315 328.353 189.533 335.74C176.681 343.127 159.777 346.856 142.874 346.856ZM142.874 272.285C126.635 272.285 110.36 275.84 97.9969 282.983C86.3322 289.708 79.9412 298.524 79.9412 307.828C79.9412 317.132 86.3672 325.948 97.9969 332.674C122.723 346.926 163.025 346.926 187.752 332.674C199.416 325.948 205.807 317.132 205.807 307.828C205.807 298.524 199.381 289.708 187.752 282.983C175.388 275.875 159.149 272.285 142.874 272.285Z" fill="#16110D"/>
<path d="M181.257 286.748C202.456 298.387 202.456 317.238 181.257 328.877C160.058 340.515 125.728 340.515 104.529 328.877C83.3302 317.238 83.3302 298.387 104.529 286.748C125.728 275.109 160.058 275.109 181.257 286.748Z" fill="#C7E7F1"/>
<path d="M142.875 339.295C128.661 339.295 114.447 336.333 103.621 330.375C92.7943 324.416 86.8223 316.401 86.8223 307.794C86.8223 299.187 92.7943 291.173 103.621 285.214C125.274 273.332 160.512 273.332 182.165 285.214C192.991 291.173 198.963 299.187 198.963 307.794C198.963 316.401 192.991 324.416 182.165 330.375C171.338 336.333 157.124 339.295 142.875 339.295ZM142.875 279.743C129.325 279.743 115.739 282.566 105.437 288.246C95.7628 293.542 90.4544 300.511 90.4544 307.829C90.4544 315.147 95.7628 322.081 105.437 327.413C126.077 338.772 159.709 338.772 180.349 327.413C190.023 322.116 195.331 315.147 195.331 307.829C195.331 300.511 190.023 293.577 180.349 288.246C170.011 282.566 156.461 279.743 142.875 279.743Z" fill="#16110D"/>
<path d="M103.55 319.084C101.036 320.443 98.8356 321.942 96.8799 323.51C97.753 324.276 98.6959 325.043 99.7087 325.775C101.385 324.485 103.236 323.231 105.366 322.081C115.704 316.401 129.254 313.579 142.805 313.579C156.355 313.579 169.941 316.401 180.244 322.081C182.409 323.266 184.295 324.52 186.006 325.844C187.019 325.113 187.997 324.381 188.87 323.579C186.879 321.976 184.609 320.443 182.094 319.049C160.442 307.202 125.203 307.202 103.55 319.084Z" fill="#16110D"/>
<path d="M98.1011 324.554L121.919 313.16H132.327L132.466 280.788L112.979 283.227L97.7868 291.241L88.6367 306.086L90.4528 316.54L98.1011 324.554Z" fill="#16110D"/>
<path d="M149.44 344.905V381.249L173.573 376.789L193.829 367.345L204.201 356.125L208.637 346.856L207.624 315.39L196.274 329.747L184.19 337.622L157.508 344.277L149.44 344.905Z" fill="#16110D"/>
<path d="M135.854 344.905V381.005L124.608 380.169V343.337L135.854 344.905Z" fill="#16110D"/>
<path d="M159.882 571.334C156.285 571.334 152.583 570.637 149.405 568.616C143.922 565.131 141.128 558.475 141.128 548.823L141.337 437.734C141.233 437.316 138.858 420.52 160.65 408.115L230.638 367.798C236.016 364.627 240.661 364 244.328 366.021C251.104 369.715 252.082 381.109 252.186 384.524V501.851C252.012 522.41 236.959 532.48 233.921 534.258L174.341 568.581L174.201 568.372C171.547 569.382 165.854 571.334 159.882 571.334Z" fill="#16110D"/>
<path d="M125.726 571.299C117.799 571.299 110.325 567.919 109.871 567.71L52.1763 534.502C51.5127 534.154 34.8889 524.85 33.5269 503.733L33.457 384.699C33.5967 381.215 34.5048 369.785 41.3149 366.057C45.0169 364.035 49.6269 364.628 55.075 367.834L125.202 408.081C146.995 420.486 144.62 437.282 144.515 437.979L144.55 548.789C144.55 558.406 141.756 565.062 136.273 568.547C133.06 570.568 129.358 571.299 125.726 571.299ZM111.512 564.539C111.512 564.539 125.796 571.021 134.353 565.55C138.753 562.727 140.988 557.082 140.988 548.789V437.7C141.093 436.829 143.014 422.263 123.456 411.147L53.3288 370.9C49.0331 368.356 45.6106 367.799 43.0961 369.158C37.7876 372.05 37.159 382.643 37.0891 384.734L37.159 503.594C38.3813 522.654 53.8177 531.296 53.9924 531.366L111.512 564.539Z" fill="#16110D"/>
<path d="M185.307 512.827C182.163 512.827 179.265 512.095 176.68 510.597C170.464 507.008 167.076 499.586 167.076 489.689C167.076 469.827 181.081 445.609 198.333 435.713C206.924 430.765 215.097 429.998 221.278 433.587C227.495 437.176 230.882 444.599 230.882 454.495C230.882 474.357 216.878 498.575 199.625 508.471C194.596 511.364 189.707 512.827 185.307 512.827ZM212.617 434.006C208.671 434.006 204.235 435.33 199.625 438.013C183.141 447.526 169.73 470.698 169.73 489.724C169.73 498.645 172.664 505.231 178.007 508.332C183.351 511.398 190.545 510.667 198.298 506.206C214.782 496.693 228.193 473.521 228.193 454.495C228.193 445.574 225.26 438.988 219.916 435.887C217.751 434.633 215.306 434.006 212.617 434.006Z" fill="#C7E7F1"/>
<path d="M200.253 491.014V492.338C200.253 493.488 199.834 494.324 199.031 494.777C198.228 495.23 197.808 494.882 197.808 493.732V492.408C193.373 494.429 189.741 493.174 188.519 489.306C188.239 488.261 188.798 487.251 189.881 486.623L190.439 486.31C191.347 485.787 191.802 485.996 192.151 486.798C193.094 488.819 195.189 489.411 197.774 488.401V473.242C192.29 474.288 189.357 473.208 189.357 467.737C189.357 462.266 192.675 456.133 197.774 452.509V451.185C197.774 450.035 198.193 449.199 198.996 448.746C199.799 448.293 200.218 448.641 200.218 449.791V451.115C203.78 449.547 206.714 450.384 207.901 453.241C208.286 454.217 207.727 455.297 206.609 455.959L205.841 456.412C204.933 456.935 204.479 456.76 204.06 456.133C203.257 455.088 201.825 454.704 200.218 455.227V468.329C205.911 467.284 210.032 467.807 210.032 474.183C210.032 480.525 205.771 487.285 200.253 491.014ZM197.774 468.782V456.551C194.805 458.921 192.954 462.649 192.954 465.681C192.954 468.678 194.561 469.27 197.774 468.782ZM200.253 487.042C203.815 484.498 206.47 480.316 206.47 476.204C206.47 472.894 204.723 471.988 200.253 472.755V487.042Z" fill="#C7E7F1"/>
<path d="M74.8077 472.024V432.682L18.9991 400.415V439.756C18.9991 439.756 19.8024 459.514 11.3857 464.218C3.00391 468.887 3.00391 468.887 3.00391 468.887L58.8125 501.155C58.8125 501.155 58.8125 501.155 67.1943 496.485C75.576 491.781 74.8077 472.024 74.8077 472.024Z" fill="#C7E7F1"/>
<path d="M81.8272 484.114V444.773L26.0186 412.506V451.847C26.0186 451.847 26.8219 471.605 18.4052 476.309C10.0234 480.978 10.0234 480.978 10.0234 480.978L65.832 513.246C65.832 513.246 65.832 513.246 74.2138 508.576C82.6305 503.872 81.8272 484.114 81.8272 484.114Z" fill="#ECFAFF"/>
<path d="M58.7771 502.862L0 468.852L10.6518 462.893C16.9032 459.409 17.7065 445.052 17.4969 439.791V397.836L76.2741 431.811V471.953C76.309 473.138 76.9027 492.722 67.9272 497.739L58.7771 502.862ZM6.00693 468.922L58.812 499.447L66.4604 495.161C72.7118 491.676 73.5151 477.32 73.3055 472.058V433.518L20.4655 402.958V439.721C20.5004 440.522 21.1989 460.419 12.1186 465.472L6.00693 468.922Z" fill="#16110D"/>
<path d="M30.7336 446.724C30.3494 435.852 43.865 441.254 47.4273 452.579C50.9895 445.331 64.6099 453.868 64.1559 465.82C63.8416 474.427 49.1386 481.083 47.4971 481.814C47.4971 481.814 47.4273 481.884 47.4273 481.849C47.3924 481.849 47.3574 481.71 47.3574 481.71C45.6811 479.096 31.013 455.68 30.7336 446.724Z" fill="#C7E7F1"/>
<path d="M45.9595 474.079L45.6452 473.94L45.1213 473.905L44.4927 472.859C41.8385 468.713 28.0784 446.481 27.7641 437.351C27.5545 431.462 30.9771 430.243 32.4439 429.999C36.8094 429.267 43.2354 433.414 46.4135 440.244C47.9502 439.059 50.0107 438.675 52.3506 439.268C58.3226 440.766 64.5042 448.049 64.1549 456.447C63.8057 465.402 50.4996 471.988 46.9723 473.556L46.7278 473.87L45.9595 474.079ZM30.7326 437.316C30.9771 444.042 40.4764 460.942 46.5183 470.629C52.3157 467.911 60.9768 462.301 61.1864 456.447C61.4658 448.92 55.7033 443.275 51.6172 442.23C49.5218 441.707 48.0899 442.265 47.2866 443.902L45.6452 447.213L44.5276 443.693C42.2576 436.48 36.0411 432.473 32.9328 432.996C30.9771 433.309 30.6628 435.504 30.7326 437.316Z" fill="#16110D"/>
<path d="M179.334 255.454C168.089 251.796 151.43 256.848 137.6 269.253C123.735 281.624 116.89 297.583 119.3 309.152L117.414 310.859L123.386 317.48C133.165 328.352 155.342 324.38 172.978 308.629C190.615 292.879 197.006 271.274 187.227 260.402L181.255 253.782L179.334 255.454Z" fill="#C7E7F1"/>
<path d="M173.397 309.118C155.516 325.112 132.816 329.05 122.827 317.899L116.401 310.756L118.532 308.874C116.262 296.817 123.666 280.753 137.146 268.731C150.592 256.709 167.425 251.099 179.195 254.688L181.325 252.807L187.751 259.95C197.67 271.066 191.278 293.123 173.397 309.118ZM118.322 310.86L123.84 316.993C133.34 327.551 155.167 323.579 172.489 308.107C189.812 292.636 196.168 271.414 186.703 260.856L181.185 254.723L179.509 256.222L179.125 256.117C167.81 252.458 151.29 257.929 138.054 269.777C124.818 281.624 117.519 297.375 119.964 309.013L120.033 309.397L118.322 310.86Z" fill="#16110D"/>
<path d="M181.22 253.747C190.998 264.619 184.607 286.223 166.971 301.973C149.334 317.724 127.122 321.696 117.379 310.824C107.6 299.952 113.991 278.348 131.628 262.598C149.229 246.812 171.441 242.875 181.22 253.747Z" fill="#C7E7F1"/>
<path d="M182.618 255.315C192.397 266.187 186.006 287.792 168.369 303.542C150.733 319.293 128.521 323.265 118.777 312.393C108.998 301.521 115.389 279.917 133.026 264.166C150.663 248.381 172.874 244.444 182.618 255.315Z" fill="#ECFAFF"/>
<path d="M167.425 302.462C149.544 318.456 126.843 322.394 116.855 311.243C106.866 300.092 113.258 278.035 131.174 262.04C149.055 246.046 171.755 242.108 181.744 253.259C191.732 264.41 185.306 286.502 167.425 302.462ZM132.082 263.086C114.759 278.557 108.403 299.779 117.868 310.337C127.367 320.93 149.194 316.923 166.517 301.451C183.839 285.98 190.195 264.758 180.731 254.2C171.197 243.607 149.404 247.614 132.082 263.086Z" fill="#16110D"/>
<path d="M173.991 258.59C181.325 266.779 175.877 283.61 161.803 296.189C147.728 308.768 130.336 312.357 123.002 304.169C115.668 295.98 121.116 279.149 135.19 266.57C149.265 253.99 166.657 250.436 173.991 258.59Z" fill="#C7E7F1"/>
<path d="M162.256 296.712C147.902 309.536 130.091 313.09 122.477 304.622C114.899 296.19 120.382 278.871 134.736 266.048C149.09 253.225 166.901 249.67 174.514 258.138C182.093 266.605 176.575 283.889 162.256 296.712ZM135.644 267.093C121.884 279.394 116.401 295.841 123.49 303.716C130.58 311.592 147.553 308.002 161.313 295.702C175.108 283.401 180.556 266.954 173.466 259.079C166.412 251.169 149.439 254.758 135.644 267.093Z" fill="#16110D"/>
<path d="M135.19 266.57C121.116 279.149 115.633 295.98 123.002 304.169C123.665 304.9 124.434 305.493 125.237 306.05C120.627 297.269 126.25 282.32 139.067 270.891C151.884 259.426 167.39 255.489 175.632 261.029C175.178 260.158 174.654 259.322 173.991 258.59C166.657 250.436 149.265 253.99 135.19 266.57Z" fill="#C7E7F1"/>
<path d="M176.26 262.354L175.248 261.587C167.215 256.151 151.849 260.367 139.52 271.379C127.192 282.39 121.325 297.165 125.83 305.737L126.564 307.131L124.852 306.643C123.874 305.981 123.106 305.354 122.477 304.657C114.899 296.224 120.382 278.905 134.736 266.082C149.09 253.259 166.901 249.704 174.514 258.172C175.143 258.869 175.702 259.67 176.26 260.751V262.354ZM135.644 267.093C121.884 279.393 116.401 295.841 123.49 303.716C123.525 303.751 123.525 303.785 123.56 303.785C120.801 294.482 126.738 280.926 138.577 270.368C150.417 259.775 164.526 255.384 173.536 259.148C173.501 259.113 173.501 259.078 173.466 259.043C166.412 251.168 149.439 254.757 135.644 267.093Z" fill="#16110D"/>
<path d="M131.278 270.717L135.015 274.863L129.113 282.599L124.817 291.833L123.735 300.754L125.236 306.051L121.604 302.636L119.788 296.294L120.417 289.29L123.909 280.509L130.056 271.797L131.278 270.717Z" fill="#191410"/>
<path d="M168.785 276.711C168.89 274.899 168.505 273.471 167.702 272.425C167.737 272.425 167.772 272.39 167.772 272.39L165.223 269.568L162.568 270.509C161.905 270.544 161.171 270.648 160.403 270.822C157.714 271.415 155.304 272.634 153.139 274.411C150.974 276.189 148.773 279.151 146.468 283.262L136.759 285.458C137.947 283.75 139.588 282.461 141.649 281.659L142.731 275.736L140.392 273.122L137.248 278.767L137.283 278.802C136.794 279.185 136.34 279.569 135.886 279.987C133.931 281.834 132.394 284.064 131.276 286.712L130.019 286.991L130.124 286.468L129.041 285.249L125.409 288.176L129.111 292.287L129.46 290.406L130.229 290.232C130.054 291.103 129.984 291.869 129.984 292.566C129.216 292.88 128.587 293.159 128.587 293.159L131.311 296.155C132.638 297.41 134.664 297.723 137.388 297.131C140.077 296.539 142.592 295.284 144.932 293.368C147.272 291.486 149.402 288.838 151.323 285.458L161.73 283.123C161.032 284.099 160.089 285.039 158.901 285.945C158.168 286.538 157.33 287.026 156.492 287.444L156.142 286.712L151.393 291.66L153.733 294.274C157.155 293.054 160.019 291.381 162.359 289.221C164.699 287.061 166.48 284.586 167.702 281.694L172.207 280.684L173.29 277.164L170.95 274.551L168.785 276.711ZM141.649 289.744C140.741 290.441 139.833 290.859 138.96 291.068C137.982 291.277 137.214 291.207 136.585 290.824C135.956 290.441 135.642 289.813 135.607 288.942L144.198 287.026C143.43 288.141 142.592 289.082 141.649 289.744ZM163.162 279.499L153.488 281.659C154.361 280.126 155.304 278.941 156.317 278.105C157.33 277.304 158.377 276.746 159.495 276.502C160.752 276.223 161.695 276.363 162.394 276.92C163.022 277.478 163.302 278.314 163.162 279.499Z" fill="#C7E7F1"/>
<path d="M172.731 281.311L168.156 282.322C166.899 285.144 165.118 287.618 162.813 289.744C160.438 291.939 157.435 293.682 153.942 294.936L153.523 295.075L150.45 291.626L156.317 285.493L156.771 286.434C157.4 286.085 157.958 285.702 158.447 285.318C158.936 284.935 159.39 284.552 159.809 284.134L151.742 285.946C149.821 289.256 147.691 291.87 145.351 293.786C142.941 295.737 140.322 297.062 137.528 297.654C134.594 298.316 132.324 297.933 130.857 296.504L128.029 293.368L128.378 292.323L124.396 287.897L129.111 284.134L130.788 285.946C131.94 283.367 133.477 281.137 135.432 279.325C135.817 278.942 136.236 278.593 136.655 278.28L140.287 271.798L143.5 275.387L142.278 282.043L141.928 282.252C140.671 282.74 139.554 283.437 138.645 284.308L146.049 282.635C148.319 278.593 150.555 275.666 152.72 273.854C154.955 272.007 157.47 270.753 160.263 270.126C160.997 269.951 161.73 269.847 162.429 269.812L165.432 268.767L168.296 271.938L168.75 272.774C169.099 273.436 169.344 274.237 169.414 275.109L170.95 273.61L174.024 277.06L172.731 281.311ZM167.178 281.137L171.649 280.126L172.522 277.374L170.915 275.562L168.017 278.384L168.121 276.642C168.226 275.004 167.912 273.715 167.178 272.809L166.585 272.042L165.013 270.3L162.603 271.136C161.975 271.171 161.276 271.276 160.543 271.45C157.993 272.042 155.653 273.192 153.593 274.9C151.532 276.607 149.332 279.534 147.097 283.541L146.957 283.82L135.258 286.434L136.236 285.005C137.423 283.263 139.065 281.973 141.09 281.102L142.068 275.875L140.566 274.203L138.261 278.349L138.611 278.489L137.737 279.22C137.283 279.569 136.795 279.952 136.375 280.37C134.49 282.147 132.988 284.343 131.94 286.852L131.8 287.165L129.181 287.758L129.391 286.538L128.937 286.05L126.981 288.35L128.657 290.615L128.832 289.674L131.102 289.152L130.892 290.197C130.753 290.929 130.683 291.626 130.683 292.392V292.845L129.775 293.229L131.87 295.528C132.988 296.574 134.804 296.853 137.283 296.295C139.833 295.737 142.278 294.518 144.548 292.671C146.783 290.824 148.913 288.246 150.764 284.97L150.904 284.691L163.372 281.904L162.324 283.367C161.591 284.378 160.578 285.388 159.355 286.329C158.657 286.887 157.854 287.374 156.841 287.897L156.212 288.211L156.003 287.758L152.371 291.556L153.977 293.368C157.12 292.218 159.844 290.615 161.94 288.629C164.175 286.573 165.921 284.099 167.109 281.346L167.178 281.137ZM163.756 280.057L152.091 282.67L152.86 281.311C153.768 279.708 154.78 278.454 155.863 277.583C156.946 276.712 158.098 276.119 159.321 275.84C160.787 275.527 161.94 275.701 162.778 276.398C163.651 277.095 164 278.175 163.826 279.569L163.756 280.057ZM154.92 280.649L162.499 278.942C162.499 278.28 162.324 277.792 161.905 277.478C161.381 277.06 160.613 276.99 159.6 277.199C158.587 277.408 157.644 277.931 156.701 278.663C156.108 279.151 155.514 279.813 154.92 280.649ZM142.732 289.744C142.522 289.953 142.313 290.127 142.068 290.301C141.09 291.033 140.077 291.521 139.134 291.73C137.982 291.974 137.039 291.87 136.236 291.382C135.677 291.033 134.978 290.336 134.944 288.942L134.909 288.385L145.77 285.946L144.792 287.374C144.163 288.315 143.465 289.117 142.732 289.744ZM141.265 289.221C141.684 288.908 142.103 288.524 142.487 288.106L136.41 289.465C136.55 289.918 136.795 290.127 136.969 290.267C137.423 290.545 138.052 290.615 138.82 290.441C139.588 290.232 140.427 289.814 141.265 289.221Z" fill="#16110D"/>
<path d="M159.356 280.44L148.949 282.775C147.028 286.155 144.898 288.768 142.558 290.685C140.218 292.566 137.703 293.821 135.014 294.448C132.29 295.04 130.264 294.727 128.937 293.472C127.61 292.218 127.261 290.232 127.82 287.514L125.375 288.071L126.458 284.552L128.902 283.994C130.02 281.346 131.557 279.116 133.512 277.269C135.468 275.422 137.738 273.993 140.357 273.018L139.275 278.942C137.214 279.743 135.573 281.032 134.385 282.74L144.094 280.545C146.364 276.433 148.599 273.471 150.765 271.694C152.93 269.917 155.34 268.697 158.029 268.105C161.032 267.442 163.268 267.756 164.769 269.045C166.271 270.335 166.76 272.53 166.236 275.562L170.881 274.516L169.798 278.036L165.293 279.046C164.071 281.904 162.29 284.412 159.95 286.573C157.61 288.699 154.746 290.406 151.324 291.626L152.616 285.458C154.013 284.9 155.305 284.169 156.492 283.228C157.715 282.357 158.658 281.416 159.356 280.44ZM133.268 286.294C133.303 287.165 133.617 287.793 134.246 288.176C134.874 288.559 135.643 288.664 136.621 288.42C137.494 288.211 138.402 287.793 139.31 287.096C140.218 286.399 141.091 285.493 141.859 284.343L133.268 286.294ZM160.788 276.886C160.928 275.736 160.683 274.865 159.985 274.307C159.286 273.75 158.343 273.61 157.086 273.889C155.968 274.133 154.921 274.656 153.908 275.492C152.895 276.293 151.952 277.478 151.079 279.046L160.788 276.886Z" fill="#C7E7F1"/>
<path d="M160.299 281.833L149.892 284.168C147.971 287.548 145.84 290.162 143.501 292.078C141.161 293.96 138.646 295.214 135.957 295.841C133.233 296.434 131.696 295.841 130.369 294.587C129.042 293.333 128.204 291.66 128.797 288.942L126.981 288.454L127.435 285.98L129.88 285.423C130.998 282.774 132.534 280.544 134.49 278.697C136.446 276.85 138.541 276.049 141.161 275.073L140.253 280.37C138.192 281.171 136.551 282.461 135.363 284.168L145.072 281.973C147.342 277.861 149.577 274.899 151.743 273.122C153.908 271.345 156.318 270.125 159.007 269.533C162.01 268.871 164.245 269.184 165.747 270.474C167.249 271.763 167.738 273.958 167.214 276.99L171.649 276.432L170.776 279.464L166.271 280.474C165.049 283.332 163.268 285.841 160.928 288.001C158.588 290.127 156.457 291.346 153.07 292.531L153.594 286.851C154.991 286.294 156.283 285.562 157.47 284.621C158.658 283.715 159.6 282.774 160.299 281.833ZM134.211 287.687C134.246 288.559 134.56 289.186 135.189 289.569C135.817 289.952 136.586 290.057 137.563 289.813C138.437 289.604 139.345 289.186 140.253 288.489C141.161 287.792 142.034 286.886 142.802 285.736L134.211 287.687ZM161.766 278.244C161.905 277.094 161.661 276.223 160.963 275.666C160.264 275.108 159.321 274.969 158.064 275.247C156.946 275.491 155.899 276.014 154.886 276.85C153.873 277.652 152.93 278.837 152.057 280.405L161.766 278.244Z" fill="#ECFAFF"/>
<path d="M170.392 278.697L165.817 279.708C164.56 282.53 162.779 285.004 160.474 287.13C158.099 289.291 155.095 291.068 151.603 292.322L151.149 292.496L150.416 291.695L151.079 289.569L152.022 285.039L152.371 284.9C153.698 284.377 154.956 283.646 156.073 282.774C156.562 282.391 157.016 282.008 157.435 281.59L149.368 283.402C147.447 286.712 145.317 289.325 142.977 291.242C140.567 293.193 137.948 294.517 135.154 295.11C132.22 295.772 129.95 295.389 128.483 293.96C127.156 292.705 126.667 290.859 126.982 288.419L124.362 289.012L125.934 283.994L128.448 283.436C129.601 280.858 131.138 278.628 133.093 276.816C135.119 274.934 137.599 272.913 140.288 271.902L141.161 272.878L139.938 279.499L139.589 279.638C138.332 280.126 137.214 280.823 136.306 281.694L143.71 280.022C145.98 275.979 148.215 273.052 150.381 271.24C152.616 269.393 155.13 268.139 157.924 267.512C161.137 266.78 163.617 267.163 165.258 268.627C166.76 269.951 167.389 272.007 167.109 274.76L170.986 273.61L171.719 274.446L170.392 278.697ZM164.839 278.523L169.31 277.513L170.043 275.213L165.468 276.537L165.642 275.526C166.131 272.739 165.712 270.787 164.385 269.637C163.058 268.487 160.998 268.209 158.239 268.836C155.689 269.428 153.314 270.578 151.289 272.286C149.228 273.993 147.028 276.92 144.793 280.928L144.653 281.206L132.954 283.82L133.931 282.391C135.119 280.684 136.76 279.359 138.786 278.488L139.659 273.784C137.599 274.69 135.713 276.258 134.106 277.791C132.22 279.569 130.718 281.764 129.671 284.273L129.531 284.586L127.121 285.144L126.423 287.13L128.763 286.607L128.553 287.653C128.029 290.092 128.344 291.869 129.461 292.949C130.614 294.03 132.43 294.308 134.909 293.751C137.459 293.158 139.903 291.974 142.174 290.127C144.444 288.28 146.539 285.701 148.39 282.426L148.53 282.147L160.998 279.359L159.95 280.823C159.216 281.833 158.204 282.844 156.981 283.785C155.864 284.656 154.607 285.388 153.279 285.945L152.336 290.51C155.165 289.36 157.61 287.862 159.566 286.05C161.801 283.994 163.547 281.52 164.734 278.767L164.839 278.523ZM161.417 277.443L149.752 280.056L150.52 278.697C151.428 277.094 152.441 275.84 153.524 274.969C154.607 274.098 155.759 273.505 156.981 273.227C158.448 272.913 159.601 273.087 160.439 273.784C161.312 274.481 161.661 275.561 161.487 276.955L161.417 277.443ZM152.581 278L160.159 276.293C160.159 275.631 159.985 275.143 159.566 274.829C159.042 274.411 158.274 274.342 157.261 274.551C156.248 274.76 155.305 275.282 154.362 276.014C153.768 276.537 153.14 277.199 152.581 278ZM140.392 287.13C140.183 287.339 139.938 287.513 139.729 287.688C138.751 288.419 137.738 288.907 136.795 289.116C135.643 289.36 134.7 289.256 133.897 288.768C133.338 288.419 132.639 287.722 132.604 286.329L132.569 285.771L143.431 283.332L142.453 284.761C141.789 285.701 141.126 286.503 140.392 287.13ZM134.036 286.851C134.176 287.304 134.42 287.513 134.595 287.653C135.049 287.932 135.678 288.001 136.446 287.827C137.214 287.653 138.053 287.235 138.891 286.607C139.31 286.294 139.729 285.91 140.113 285.492L134.036 286.851Z" fill="#16110D"/>
<path d="M170.429 298.629L176.505 305.389L182.966 297.375L188.345 288.733L191.593 277.199L191.034 267.233L188.799 262.215L183.979 257.023L186.424 266.919L183.665 278.14L176.436 291.555L170.429 298.629Z" fill="#16110D"/>
<path d="M165.888 303.055L171.825 309.675L168.542 312.219L162.291 305.25L165.888 303.055Z" fill="#16110D"/>
</g>
<defs>
<clipPath id="clip0">
<rect width="262" height="612" fill="white"/>
</clipPath>
</defs>
</svg>
