<svg width="563" height="309" viewBox="0 0 563 309" fill="none" xmlns="http://www.w3.org/2000/svg">
<path d="M285.96 1.4043L22.8535 152.693L145.765 223.66L146.837 231.539L161.001 242.776C161.001 242.776 167.715 246.418 176.452 241.371L439.582 90.0826L285.96 1.4043Z" fill="white"/>
<path d="M285.958 10.689L17.4238 165.073C15.9954 165.882 15.9954 167.929 17.4238 168.763L160.999 252.084C160.999 252.084 167.713 255.727 176.45 250.68L439.58 99.3911L285.958 10.689Z" fill="white"/>
<path d="M145.763 223.589L146.834 231.469L160.999 242.705C160.999 242.705 167.712 246.348 176.449 241.301L431.509 94.6303L285.958 10.5942L30.8975 157.265L145.763 223.589Z" fill="#C7E7F1"/>
<path d="M167.045 245.276C163.117 245.276 160.57 243.943 160.403 243.848L145.667 232.182L144.62 224.422L20.3984 152.693L285.957 0L286.552 0.357098L441.984 90.0829L177.02 242.443C173.258 244.633 169.807 245.276 167.045 245.276ZM147.952 230.897L161.736 241.824C161.808 241.848 167.831 244.943 175.83 240.324L437.127 90.0829L285.957 2.80914L25.2787 152.717L146.881 222.922L147.952 230.897Z" fill="black"/>
<path d="M365.332 123.888L364.856 124.174C363.071 125.222 359.928 125.079 357.857 123.888L254.276 64.087C252.205 62.8967 251.991 61.0875 253.776 60.04L254.252 59.7543C256.038 58.7068 259.18 58.8497 261.251 60.04L364.808 119.818C366.903 121.055 367.118 122.865 365.332 123.888Z" fill="white"/>
<path d="M361.783 122.198C360.188 122.198 358.545 121.817 357.236 121.056L253.678 61.2782C252.202 60.4212 251.369 59.207 251.369 57.9453C251.369 56.8026 252.012 55.8028 253.178 55.1362L253.655 54.8505C255.821 53.6126 259.416 53.7316 261.868 55.1362L365.425 114.937C366.901 115.795 367.758 117.009 367.758 118.27C367.758 119.389 367.091 120.413 365.949 121.08L365.473 121.365C364.449 121.937 363.14 122.198 361.783 122.198ZM257.297 56.4217C256.368 56.4217 255.511 56.5883 254.892 56.9454L254.416 57.2311C254.226 57.3263 253.821 57.612 253.821 57.9453C253.821 58.2072 254.107 58.7071 254.916 59.1832L358.474 118.961C360.14 119.913 362.854 120.056 364.258 119.246L364.735 118.961C364.925 118.866 365.33 118.58 365.33 118.27C365.33 117.985 365.044 117.509 364.235 117.032L260.677 57.2549C259.725 56.7074 258.463 56.4217 257.297 56.4217Z" fill="black"/>
<path d="M378.972 116.008L378.496 116.294C376.711 117.341 373.568 117.198 371.497 116.008L267.94 56.2306C265.869 55.0403 265.655 53.231 267.44 52.1835L267.916 51.8979C269.702 50.8504 272.844 50.9932 274.915 52.1835L378.472 111.961C380.544 113.175 380.782 114.984 378.972 116.008Z" fill="white"/>
<path d="M375.45 114.318C373.855 114.318 372.213 113.937 370.88 113.175L267.322 53.3976C265.846 52.5406 264.989 51.3265 264.989 50.0647C264.989 48.922 265.632 47.9222 266.799 47.2556L267.275 46.9699C269.441 45.7082 273.06 45.851 275.488 47.2556L379.045 107.033C380.521 107.89 381.378 109.104 381.378 110.366C381.378 111.485 380.712 112.509 379.569 113.175L379.093 113.461C378.117 114.032 376.807 114.318 375.45 114.318ZM270.941 48.5411C270.012 48.5411 269.155 48.7078 268.536 49.0649L268.06 49.3505C267.87 49.4458 267.465 49.7315 267.465 50.0647C267.465 50.3266 267.751 50.8266 268.56 51.3027L372.117 111.08C373.784 112.032 376.498 112.175 377.902 111.366L378.378 111.08C378.569 110.985 378.974 110.699 378.974 110.39C378.974 110.104 378.688 109.628 377.879 109.152L274.321 49.3744C273.393 48.803 272.131 48.5411 270.941 48.5411Z" fill="black"/>
<path d="M392.637 108.129L392.161 108.415C390.376 109.462 387.233 109.32 385.162 108.129L281.605 48.3517C279.534 47.1614 279.32 45.3521 281.105 44.3046L281.581 44.019C283.367 42.9715 286.509 43.1143 288.58 44.3046L392.138 104.082C394.209 105.272 394.447 107.082 392.637 108.129Z" fill="white"/>
<path d="M389.115 106.438C387.52 106.438 385.877 106.057 384.568 105.295L281.01 45.5177C279.534 44.6607 278.701 43.4466 278.701 42.1849C278.701 41.066 279.368 40.0423 280.51 39.3757L280.987 39.09C283.153 37.8283 286.748 37.9711 289.2 39.3757L392.757 99.1532C394.233 100.01 395.09 101.224 395.09 102.486C395.09 103.629 394.447 104.629 393.281 105.295L392.805 105.581C391.781 106.152 390.472 106.438 389.115 106.438ZM284.605 40.6374C283.677 40.6374 282.82 40.8041 282.201 41.1612L281.725 41.4469C281.534 41.5421 281.129 41.8277 281.129 42.161C281.129 42.4467 281.415 42.9228 282.225 43.399L385.782 103.176C387.448 104.129 390.162 104.272 391.567 103.462L392.043 103.176C392.233 103.081 392.638 102.796 392.638 102.462C392.638 102.177 392.352 101.701 391.543 101.224L287.986 41.4469C287.033 40.9231 285.772 40.6374 284.605 40.6374Z" fill="black"/>
<path d="M316.098 151.908L315.622 152.194C313.836 153.241 310.694 153.098 308.623 151.908L183.854 79.8703C181.783 78.68 181.569 76.8707 183.354 75.8232L183.83 75.5375C185.616 74.49 188.758 74.6329 190.829 75.8232L315.598 147.861C317.669 149.075 317.907 150.884 316.098 151.908Z" fill="white"/>
<path d="M312.579 150.218C310.984 150.218 309.341 149.837 308.008 149.075L183.239 77.0375C181.763 76.1804 180.906 74.9663 180.906 73.7046C180.906 72.5619 181.549 71.562 182.716 70.8954L183.192 70.6098C185.358 69.3718 188.953 69.4909 191.405 70.8954L316.173 142.933C317.649 143.79 318.506 145.004 318.506 146.266C318.506 147.409 317.864 148.409 316.697 149.075L316.221 149.361C315.245 149.932 313.936 150.218 312.579 150.218ZM186.858 72.2048C185.929 72.2048 185.072 72.3714 184.453 72.7285L183.977 73.0142C183.787 73.1094 183.382 73.3951 183.382 73.7284C183.382 74.0141 183.668 74.4902 184.477 74.9663L309.246 147.004C310.912 147.98 313.626 148.099 315.031 147.29L315.507 147.004C315.697 146.909 316.102 146.623 316.102 146.29C316.102 146.028 315.816 145.528 315.007 145.052L190.238 73.0142C189.31 72.4666 188.048 72.2048 186.858 72.2048Z" fill="black"/>
<path d="M329.766 144.028L329.29 144.314C327.504 145.361 324.362 145.218 322.291 144.028L197.522 71.9904C195.451 70.8001 195.237 68.9908 197.022 67.9433L197.498 67.6576C199.284 66.6102 202.426 66.753 204.497 67.9433L329.266 139.981C331.337 141.171 331.551 142.981 329.766 144.028Z" fill="white"/>
<path d="M326.242 142.338C324.647 142.338 323.005 141.957 321.672 141.195L196.903 69.1576C195.427 68.3006 194.594 67.0864 194.594 65.8247C194.594 64.682 195.237 63.6821 196.403 63.0156L196.879 62.7299C199.046 61.4919 202.64 61.611 205.092 63.0156L329.861 135.053C331.337 135.91 332.194 137.124 332.194 138.386C332.194 139.529 331.551 140.529 330.385 141.195L329.909 141.481C328.885 142.052 327.599 142.338 326.242 142.338ZM200.522 64.3011C199.593 64.3011 198.736 64.4677 198.117 64.8248L197.641 65.1105C197.45 65.2057 197.046 65.4914 197.046 65.8247C197.046 66.0866 197.331 66.5865 198.141 67.0626L322.91 139.1C324.576 140.076 327.29 140.195 328.694 139.386L329.194 139.1C329.385 139.005 329.79 138.719 329.79 138.386C329.79 138.124 329.504 137.624 328.694 137.148L203.926 65.1105C202.974 64.5868 201.712 64.3011 200.522 64.3011Z" fill="black"/>
<path d="M343.428 136.148L342.952 136.434C341.166 137.481 338.024 137.338 335.953 136.148L211.184 64.0866C209.113 62.8962 208.899 61.087 210.684 60.0395L211.16 59.7538C212.946 58.7063 216.088 58.8492 218.159 60.0395L342.928 132.077C344.999 133.291 345.213 135.101 343.428 136.148Z" fill="white"/>
<path d="M339.909 134.458C338.314 134.458 336.671 134.077 335.338 133.315L210.569 61.2777C209.093 60.4207 208.236 59.2065 208.236 57.9448C208.236 56.8021 208.879 55.8023 210.046 55.1357L210.522 54.85C212.688 53.6121 216.283 53.7311 218.735 55.1357L343.504 127.173C344.979 128.03 345.813 129.245 345.813 130.506C345.813 131.649 345.17 132.649 344.003 133.315L343.527 133.601C342.551 134.172 341.266 134.458 339.909 134.458ZM214.188 56.4212C213.259 56.4212 212.402 56.5879 211.783 56.945L211.307 57.2306C211.117 57.3258 210.712 57.6115 210.712 57.9448C210.712 58.2067 210.998 58.7066 211.807 59.1827L336.576 131.22C338.242 132.173 340.956 132.316 342.361 131.506L342.837 131.22C343.027 131.125 343.432 130.84 343.432 130.506C343.432 130.221 343.146 129.745 342.337 129.268L217.568 57.2306C216.616 56.7069 215.354 56.4212 214.188 56.4212Z" fill="black"/>
<path d="M249.369 160.694L248.893 160.98C247.107 162.027 243.965 161.884 241.894 160.694L142.883 103.535C140.812 102.345 140.598 100.536 142.383 99.4882L142.86 99.2026C144.645 98.1551 147.787 98.2979 149.859 99.4882L248.869 156.647C250.94 157.861 251.154 159.67 249.369 160.694Z" fill="white"/>
<path d="M245.846 159.027C244.251 159.027 242.609 158.647 241.276 157.885L142.265 100.726C140.789 99.8689 139.956 98.6548 139.956 97.3931C139.956 96.2504 140.599 95.2505 141.765 94.5839L142.241 94.2982C144.408 93.0603 148.003 93.1793 150.455 94.5839L249.465 151.743C250.941 152.6 251.798 153.814 251.798 155.076C251.798 156.218 251.155 157.218 249.989 157.885L249.512 158.17C248.489 158.742 247.203 159.027 245.846 159.027ZM145.884 95.8456C144.955 95.8456 144.098 96.0123 143.479 96.3694L143.003 96.655C142.813 96.7503 142.408 97.036 142.408 97.3692C142.408 97.6549 142.694 98.131 143.503 98.6072L242.513 155.766C244.18 156.742 246.894 156.861 248.298 156.052L248.774 155.766C248.965 155.671 249.37 155.385 249.37 155.052C249.37 154.79 249.084 154.29 248.275 153.814L149.264 96.6789C148.312 96.1313 147.05 95.8456 145.884 95.8456Z" fill="black"/>
<path d="M263.031 152.812L262.555 153.098C260.769 154.145 257.627 154.003 255.556 152.812L156.545 95.6534C154.474 94.4631 154.26 92.6539 156.046 91.6064L156.522 91.3207C158.307 90.2732 161.45 90.4161 163.521 91.6064L262.531 148.765C264.602 149.979 264.816 151.789 263.031 152.812Z" fill="white"/>
<path d="M259.489 151.122C257.894 151.122 256.251 150.741 254.918 149.98L155.932 92.8207C154.456 91.9637 153.599 90.7495 153.599 89.4878C153.599 88.3451 154.241 87.3452 155.408 86.6787L155.884 86.393C158.05 85.155 161.645 85.2741 164.097 86.6787L263.107 143.837C264.583 144.695 265.44 145.909 265.44 147.17C265.44 148.313 264.798 149.313 263.631 149.98L263.155 150.265C262.155 150.837 260.846 151.122 259.489 151.122ZM159.55 87.9642C158.622 87.9642 157.765 88.1308 157.146 88.4879L156.67 88.7736C156.479 88.8688 156.074 89.1545 156.074 89.4878C156.074 89.7496 156.36 90.2496 157.17 90.7257L256.18 147.885C257.846 148.861 260.56 148.98 261.965 148.17L262.465 147.885C262.655 147.789 263.06 147.504 263.06 147.17C263.06 146.908 262.774 146.409 261.965 145.932L162.954 88.7736C161.978 88.2498 160.717 87.9642 159.55 87.9642Z" fill="black"/>
<path d="M302.436 159.788L301.96 160.074C300.175 161.122 297.032 160.979 294.961 159.788L170.216 87.7506C168.145 86.5603 167.931 84.751 169.716 83.7036L170.193 83.4179C171.978 82.3704 175.12 82.5133 177.192 83.7036L301.96 155.741C304.008 156.955 304.246 158.765 302.436 159.788Z" fill="white"/>
<path d="M298.911 158.098C297.316 158.098 295.673 157.717 294.34 156.956L169.571 84.9178C168.095 84.0608 167.238 82.8467 167.238 81.585C167.238 80.4423 167.881 79.4424 169.048 78.7758L169.524 78.4901C171.69 77.2522 175.285 77.3712 177.737 78.7758L302.505 150.814C303.981 151.671 304.815 152.885 304.815 154.146C304.815 155.289 304.172 156.289 303.005 156.956L302.529 157.241C301.577 157.836 300.268 158.098 298.911 158.098ZM173.214 80.0852C172.285 80.0852 171.428 80.2518 170.809 80.6089L170.333 80.8946C170.143 80.9898 169.738 81.2755 169.738 81.6088C169.738 81.8706 170.024 82.3706 170.833 82.8467L295.602 154.884C297.268 155.86 299.982 155.98 301.387 155.17L301.863 154.884C302.053 154.789 302.458 154.504 302.458 154.17C302.458 153.885 302.172 153.408 301.363 152.932L176.594 80.8946C175.642 80.3708 174.38 80.0852 173.214 80.0852Z" fill="black"/>
<path d="M235.708 168.596L235.232 168.882C233.446 169.93 230.304 169.787 228.233 168.596L129.222 111.438C127.151 110.247 126.937 108.438 128.722 107.391L129.198 107.105C130.984 106.057 134.126 106.2 136.197 107.391L235.208 164.549C237.279 165.74 237.493 167.549 235.708 168.596Z" fill="white"/>
<path d="M232.184 166.907C230.589 166.907 228.946 166.526 227.613 165.764L128.627 108.605C127.151 107.748 126.317 106.534 126.317 105.272C126.317 104.13 126.96 103.13 128.127 102.463L128.603 102.178C130.769 100.94 134.364 101.059 136.816 102.463L235.826 159.622C237.302 160.479 238.135 161.693 238.135 162.955C238.135 164.098 237.493 165.098 236.326 165.764L235.85 166.05C234.826 166.621 233.541 166.907 232.184 166.907ZM132.221 103.749C131.293 103.749 130.436 103.916 129.817 104.273L129.341 104.558C129.15 104.653 128.746 104.939 128.746 105.272C128.746 105.534 129.031 106.034 129.841 106.51L228.851 163.669C230.517 164.645 233.231 164.764 234.636 163.955L235.112 163.669C235.302 163.574 235.707 163.288 235.707 162.955C235.707 162.669 235.421 162.193 234.612 161.717L135.602 104.558C134.65 104.011 133.412 103.749 132.221 103.749Z" fill="black"/>
<path d="M226.422 189.283C218.827 189.283 211.233 187.617 205.472 184.284C199.64 180.927 196.426 176.38 196.426 171.476C196.426 166.596 199.64 162.049 205.472 158.668C217.018 152.003 235.825 152.003 247.395 158.668C253.228 162.025 256.418 166.572 256.418 171.476C256.418 176.356 253.204 180.903 247.395 184.284C241.61 187.617 234.016 189.283 226.422 189.283ZM226.422 156.073C219.28 156.073 212.114 157.645 206.686 160.787C201.639 163.691 198.854 167.5 198.854 171.476C198.854 175.452 201.639 179.261 206.686 182.165C217.566 188.45 235.278 188.45 246.157 182.165C251.204 179.261 253.966 175.452 253.966 171.476C253.966 167.5 251.18 163.691 246.157 160.787C240.729 157.645 233.564 156.073 226.422 156.073Z" fill="black"/>
<path d="M226.424 185.141C220.662 185.141 214.925 183.879 210.545 181.356C206.069 178.784 203.617 175.261 203.617 171.5C203.617 167.715 206.069 164.215 210.545 161.62C219.306 156.573 233.542 156.573 242.302 161.62C246.778 164.191 249.23 167.715 249.23 171.5C249.23 175.285 246.778 178.784 242.302 181.356C237.922 183.879 232.185 185.141 226.424 185.141ZM226.424 160.216C221.115 160.216 215.806 161.382 211.759 163.715C208.069 165.834 206.045 168.595 206.045 171.476C206.045 174.357 208.069 177.118 211.759 179.237C219.853 183.903 232.994 183.903 241.088 179.237C244.778 177.118 246.802 174.357 246.802 171.476C246.802 168.595 244.778 165.834 241.088 163.715C237.041 161.382 231.732 160.216 226.424 160.216Z" fill="black"/>
<path d="M112.079 113.195L110.865 115.298L156.056 141.39L157.27 139.287L112.079 113.195Z" fill="black"/>
<path d="M106.607 116.358L105.393 118.461L150.583 144.553L151.797 142.45L106.607 116.358Z" fill="black"/>
<path d="M163.324 142.752L162.109 144.854L167.222 147.807L168.437 145.704L163.324 142.752Z" fill="black"/>
<path d="M157.862 145.874L156.648 147.977L161.762 150.928L162.976 148.825L157.862 145.874Z" fill="black"/>
<path d="M36.2557 100.867L35.8272 100.748C32.1372 99.5103 27.9235 100.296 22.8528 103.224C10.902 110.128 1.21289 126.887 1.21289 140.695C1.21289 147.194 3.37926 151.836 6.87878 154.241L8.52141 155.217L160.977 242.8C157.215 240.467 154.906 235.706 154.906 228.969C154.906 215.185 164.595 198.402 176.546 191.498C182.355 188.141 187.592 187.76 191.473 189.807V189.784L36.2557 100.867Z" fill="#C7E7F1"/>
<path d="M176.334 191.261L36.9964 111.439L36.5679 111.32C32.8779 110.082 28.6642 110.867 23.5935 113.795C13.1663 119.818 4.47703 133.34 2.42969 145.862C3.33433 149.314 5.04838 151.933 7.38139 153.528L9.02402 154.504L155.694 238.778C155.742 237.255 155.861 235.707 156.123 234.16C155.671 232.422 155.409 230.47 155.409 228.28C155.409 214.758 164.717 198.403 176.334 191.261Z" fill="white"/>
<path d="M160.383 243.848L7.92748 156.265L6.26105 155.265C2.21398 152.48 0 147.314 0 140.672C0 126.507 9.97482 109.224 22.235 102.153C27.5915 99.0583 32.1623 98.2251 36.2093 99.582L36.8521 99.7963L193.235 189.379L191.902 191.379L190.926 190.879C187.26 188.951 182.356 189.546 177.166 192.546C165.573 199.235 156.145 215.566 156.145 228.945C156.145 234.992 158.097 239.539 161.645 241.729L160.383 243.848ZM32.3051 101.415C29.6864 101.415 26.7582 102.367 23.4492 104.272C11.8555 110.961 2.42824 127.293 2.42824 140.695C2.42824 146.504 4.26132 150.956 7.57039 153.241L9.1416 154.17L155.526 238.254C154.312 235.682 153.693 232.54 153.693 228.969C153.693 214.804 163.668 197.545 175.928 190.451C179.023 188.665 182.023 187.641 184.856 187.403L35.7808 101.986L35.4951 101.915C34.4953 101.582 33.424 101.415 32.3051 101.415Z" fill="black"/>
<path d="M492.361 302.435L380.947 238.11L449.033 198.806L560.423 263.131L492.361 302.435Z" fill="white"/>
<path d="M492.361 308.434L380.947 244.11L449.033 204.806L560.423 269.106L492.361 308.434Z" fill="#D5F0FF"/>
<path d="M492.361 302.364L386.137 241.039L380.947 244.039L492.361 308.363L560.423 269.035L555.233 266.059L492.361 302.364Z" fill="white"/>
<path d="M492.36 303.84L378.519 238.111L449.033 197.402L562.874 263.131L492.36 303.84ZM383.375 238.111L492.36 301.031L558.018 263.131L449.033 200.211L383.375 238.111Z" fill="black"/>
<path d="M508.669 258.584L457.128 228.826C454.462 227.302 454.795 224.612 457.866 222.827L457.89 222.803C460.961 221.041 465.603 220.827 468.27 222.374L519.81 252.132C522.477 253.656 522.143 256.346 519.072 258.131L519.048 258.155C515.954 259.917 511.311 260.107 508.669 258.584Z" fill="white"/>
<path d="M508.669 262.012L457.128 232.254C454.462 230.731 454.795 228.041 457.866 226.255L457.89 226.231C460.961 224.47 465.603 224.256 468.27 225.803L519.81 255.561C522.477 257.084 522.143 259.775 519.072 261.56L519.048 261.584C515.954 263.369 511.311 263.56 508.669 262.012Z" fill="#97C1D7"/>
<path d="M513.168 260.823C511.263 260.823 509.454 260.418 508.049 259.632L456.509 229.874C454.962 228.97 454.104 227.684 454.104 226.232C454.104 224.566 455.247 222.947 457.247 221.804C460.723 219.804 465.817 219.614 468.864 221.352L520.405 251.11C521.952 252.014 522.809 253.3 522.809 254.752C522.809 256.418 521.667 258.037 519.667 259.18C517.762 260.275 515.406 260.823 513.168 260.823ZM509.264 257.514C511.549 258.823 515.739 258.632 518.429 257.085C519.667 256.371 520.381 255.514 520.381 254.728C520.381 254.014 519.738 253.49 519.191 253.181L467.65 223.423C465.365 222.114 461.175 222.304 458.485 223.851C457.247 224.566 456.533 225.423 456.533 226.208C456.533 226.922 457.176 227.446 457.723 227.756L509.264 257.514Z" fill="black"/>
<path d="M441.56 223.279L440.846 222.874C438.18 221.35 438.513 218.66 441.584 216.875L441.608 216.851C444.679 215.089 449.321 214.875 451.987 216.423L452.702 216.827C455.368 218.351 455.035 221.041 451.964 222.826L451.94 222.85C448.845 224.612 444.203 224.802 441.56 223.279Z" fill="white"/>
<path d="M446.06 222.089C444.156 222.089 442.346 221.684 440.942 220.899L440.228 220.494C438.68 219.589 437.823 218.304 437.823 216.852C437.823 215.185 438.966 213.566 440.966 212.4C444.441 210.4 449.536 210.21 452.583 211.948L453.297 212.352C454.845 213.257 455.702 214.542 455.702 215.995C455.702 217.661 454.559 219.28 452.559 220.423C450.679 221.518 448.322 222.089 446.06 222.089ZM447.489 213.162C445.656 213.162 443.703 213.614 442.204 214.471C440.966 215.185 440.251 216.066 440.251 216.828C440.251 217.542 440.894 218.066 441.442 218.375L442.156 218.78C444.441 220.089 448.631 219.899 451.321 218.351C452.559 217.637 453.274 216.78 453.274 215.995C453.274 215.28 452.631 214.757 452.083 214.447L451.369 214.042C450.345 213.447 448.965 213.162 447.489 213.162Z" fill="black"/>
<path d="M524.93 267.963L524.216 267.559C521.55 266.035 521.883 263.345 524.954 261.559L524.978 261.536C528.049 259.774 532.691 259.56 535.358 261.107L536.072 261.512C538.738 263.035 538.405 265.726 535.334 267.511L535.31 267.535C532.239 269.32 527.597 269.511 524.93 267.963Z" fill="#459CCE"/>
<path d="M524.952 271.416L524.238 271.011C521.571 269.488 521.905 266.798 524.976 265.012L525 264.988C528.071 263.227 532.713 263.012 535.379 264.56L536.093 264.965C538.76 266.488 538.426 269.178 535.355 270.964L535.331 270.988C532.237 272.749 527.594 272.963 524.952 271.416Z" fill="white"/>
<path d="M529.452 270.225C527.547 270.225 525.738 269.82 524.333 269.035L523.619 268.63C522.072 267.725 521.215 266.44 521.215 264.987C521.215 263.321 522.358 261.702 524.357 260.559C527.833 258.56 532.928 258.369 535.975 260.107L536.689 260.512C538.236 261.417 539.093 262.702 539.093 264.154C539.093 265.821 537.951 267.44 535.951 268.606C534.046 269.677 531.69 270.225 529.452 270.225ZM530.88 261.321C529.047 261.321 527.095 261.774 525.595 262.631C524.357 263.345 523.643 264.226 523.643 264.987C523.643 265.702 524.286 266.225 524.833 266.535L525.548 266.94C527.833 268.249 532.023 268.058 534.713 266.511C535.951 265.797 536.665 264.916 536.665 264.154C536.665 263.44 536.022 262.916 535.475 262.607L534.761 262.202C533.737 261.607 532.332 261.321 530.88 261.321Z" fill="black"/>
<path d="M495.768 282.319L493.768 280.914C494.006 280.557 493.958 280.319 493.887 280.129C493.625 279.51 492.554 278.772 490.792 278.534L490.269 278.462C488.031 278.153 486.055 277.439 484.531 276.415L475.366 270.178C474.652 269.702 474.318 268.964 474.461 268.226C474.628 267.369 475.366 266.726 476.437 266.464L484.626 264.607L466.415 263.274L460.487 265.726C458.511 266.535 455.488 266.154 454.44 264.393C453.964 263.631 453.964 262.75 454.44 261.988C455.154 260.822 456.892 260.131 458.749 260.274L466.01 260.798L477.675 255.989C469.867 255.918 469.176 255.68 468.843 255.561L469.605 253.251C469.771 253.299 470.985 253.513 478.842 253.561C480.318 253.561 481.413 254.323 481.603 255.418C481.722 256.132 481.413 257.156 480.079 257.632L471.414 261.203L486.293 262.298C487.769 262.322 488.912 263.155 489.031 264.298C489.102 265.107 488.65 266.202 487.031 266.559L477.532 268.702L485.912 274.391C487.102 275.201 488.793 275.796 490.626 276.058L491.149 276.129C493.601 276.463 495.458 277.605 496.149 279.176C496.577 280.224 496.458 281.343 495.768 282.319ZM458.273 262.679C457.249 262.679 456.606 263.083 456.511 263.25C456.773 263.536 458.344 263.964 459.558 263.464L460.987 262.869L458.559 262.703C458.487 262.703 458.368 262.679 458.273 262.679Z" fill="white"/>
<path d="M455.105 249.252L422.419 230.397C421.157 229.683 421.324 228.398 422.776 227.564C424.228 226.731 426.418 226.636 427.68 227.35L460.342 246.205C461.604 246.919 461.437 248.204 459.985 249.038C458.533 249.871 456.343 249.966 455.105 249.252Z" fill="white"/>
<path d="M455.105 246.3L422.419 227.445C421.157 226.731 421.324 225.445 422.776 224.612C424.228 223.779 426.418 223.684 427.68 224.398L460.342 243.252C461.604 243.967 461.437 245.252 459.985 246.085C458.533 246.942 456.343 247.038 455.105 246.3Z" fill="white"/>
<path d="M457.222 248.014C456.222 248.014 455.246 247.8 454.484 247.347L421.822 228.493C420.894 227.969 420.37 227.136 420.37 226.207C420.37 225.184 421.037 224.232 422.179 223.565C424.012 222.494 426.655 222.422 428.298 223.351L460.96 242.205C461.888 242.729 462.412 243.562 462.412 244.491C462.412 245.514 461.745 246.467 460.603 247.133C459.603 247.728 458.389 248.014 457.222 248.014ZM422.798 226.231C422.822 226.231 422.87 226.303 423.036 226.398L455.699 245.252C456.579 245.752 458.293 245.681 459.365 245.038C459.793 244.776 459.936 244.562 459.96 244.491C459.96 244.491 459.889 244.419 459.722 244.324L427.06 225.469C426.179 224.97 424.465 225.041 423.394 225.684C422.941 225.922 422.822 226.16 422.798 226.231Z" fill="black"/>
<path d="M415.052 241.977L413.833 244.077L435.72 256.778L436.939 254.678L415.052 241.977Z" fill="white"/>
<path d="M406.251 236.889L405.032 238.989L411.332 242.646L412.551 240.546L406.251 236.889Z" fill="white"/>
<path d="M414.155 239.42L412.937 241.521L434.824 254.222L436.042 252.121L414.155 239.42Z" fill="black"/>
<path d="M405.35 234.329L404.131 236.429L410.431 240.087L411.65 237.987L405.35 234.329Z" fill="black"/>
<path d="M495.768 280.485L493.768 279.081C494.006 278.724 493.958 278.486 493.887 278.295C493.625 277.676 492.554 276.938 490.792 276.7L490.269 276.629C488.031 276.319 486.055 275.605 484.531 274.581L475.366 268.344C474.652 267.868 474.318 267.13 474.461 266.392C474.628 265.535 475.366 264.892 476.437 264.63L484.626 262.774L466.415 261.44L460.487 263.892C458.511 264.702 455.488 264.321 454.44 262.559C453.964 261.797 453.964 260.917 454.44 260.155C455.154 258.988 456.892 258.298 458.749 258.441L466.01 258.965L477.675 254.156C469.867 254.084 469.176 253.846 468.843 253.727L469.605 251.418C469.771 251.466 470.985 251.68 478.842 251.727C480.318 251.727 481.413 252.465 481.603 253.584C481.722 254.299 481.413 255.322 480.079 255.798L471.414 259.369L486.293 260.464C487.769 260.488 488.912 261.321 489.031 262.464C489.102 263.273 488.65 264.369 487.031 264.726L477.532 266.868L485.912 272.558C487.102 273.367 488.793 273.962 490.626 274.224L491.149 274.296C493.601 274.629 495.458 275.772 496.149 277.343C496.577 278.39 496.458 279.486 495.768 280.485ZM458.273 260.845C457.249 260.845 456.606 261.25 456.511 261.417C456.773 261.702 458.344 262.131 459.558 261.631L460.987 261.036L458.559 260.869C458.487 260.845 458.368 260.845 458.273 260.845Z" fill="black"/>
<path d="M345.046 185.332L511.023 90.845C515.118 88.512 520.307 89.9404 522.641 94.035C524.974 98.1297 523.545 103.319 519.45 105.653L353.473 200.14C349.379 202.473 344.189 201.044 341.856 196.949C339.523 192.855 340.951 187.665 345.046 185.332Z" fill="white"/>
<path d="M345.023 188.355L511 93.8679C515.095 91.5349 520.285 92.9633 522.618 97.058C524.951 101.153 521.022 103.771 516.952 106.104L353.45 198.258C349.356 200.591 344.166 204.067 341.857 199.972C339.524 195.902 340.952 190.688 345.023 188.355Z" fill="#ADE3FF"/>
<path d="M522.282 93.9866C520.996 91.725 518.806 90.2967 516.425 89.8682C518.02 93.7724 516.568 98.3432 512.807 100.486L346.829 194.973C345.02 195.996 342.973 196.258 341.068 195.901C341.211 196.235 341.33 196.568 341.497 196.901C343.83 200.996 349.02 202.424 353.114 200.091L519.092 105.604C523.186 103.295 524.615 98.0813 522.282 93.9866Z" fill="black"/>
<path d="M349.259 202.52C348.378 202.52 347.521 202.401 346.664 202.163C344.14 201.472 342.045 199.83 340.76 197.568C339.474 195.307 339.141 192.664 339.831 190.141C340.522 187.617 342.164 185.522 344.426 184.237L510.403 89.7497C512.665 88.4641 515.307 88.1308 517.831 88.8212C520.354 89.5116 522.449 91.1543 523.735 93.4159C526.401 98.1057 524.759 104.081 520.069 106.747L354.091 201.234C352.592 202.091 350.949 202.52 349.259 202.52ZM515.212 90.9876C513.974 90.9876 512.736 91.2971 511.641 91.9398L345.664 186.427C343.974 187.379 342.76 188.95 342.26 190.807C341.736 192.688 341.998 194.64 342.95 196.33C343.902 198.021 345.474 199.235 347.33 199.735C349.211 200.235 351.163 199.996 352.854 199.044L518.831 104.557C520.521 103.605 521.735 102.034 522.235 100.177C522.759 98.2961 522.497 96.344 521.545 94.6538C520.592 92.9635 519.021 91.7494 517.164 91.2495C516.522 91.059 515.855 90.9876 515.212 90.9876Z" fill="black"/>
<path d="M439.127 127.22L499.666 92.7484C501.309 91.82 503.427 92.3913 504.356 94.034L504.689 94.6053C505.618 96.248 505.046 98.3667 503.404 99.2951L442.864 133.767C441.222 134.695 439.103 134.124 438.174 132.481L437.841 131.91C436.913 130.267 437.484 128.172 439.127 127.22Z" fill="white"/>
<path d="M439.127 130.338L499.666 95.8666C501.309 94.9381 503.427 95.5095 504.356 97.1521L504.689 97.7235C505.618 99.3661 505.046 101.485 503.404 102.413L442.864 136.885C441.222 137.813 439.103 137.242 438.174 135.599L437.841 135.028C436.913 133.385 437.484 131.29 439.127 130.338Z" fill="#005986"/>
<path d="M441.177 135.505C440.748 135.505 440.343 135.457 439.915 135.338C438.701 135.005 437.701 134.219 437.082 133.124L436.749 132.553C436.13 131.458 435.963 130.196 436.296 128.982C436.63 127.768 437.415 126.768 438.51 126.149L499.05 91.6774C500.145 91.0585 501.407 90.8918 502.621 91.2251C503.835 91.5584 504.835 92.344 505.454 93.4391L505.787 94.0342C507.072 96.2958 506.287 99.1526 504.025 100.438L443.486 134.91C442.772 135.29 441.986 135.505 441.177 135.505ZM501.383 93.5581C501.002 93.5581 500.645 93.6533 500.311 93.8438L439.772 128.315C439.272 128.601 438.915 129.077 438.748 129.625C438.606 130.196 438.677 130.767 438.963 131.291L439.296 131.862C439.582 132.362 440.058 132.743 440.605 132.886C441.177 133.029 441.748 132.957 442.248 132.672L502.787 98.2003C503.835 97.6052 504.192 96.272 503.597 95.2246L503.263 94.6532C502.978 94.1533 502.502 93.7962 501.954 93.6295C501.764 93.5819 501.573 93.5581 501.383 93.5581Z" fill="black"/>
<path d="M347.143 201.545L348.523 200.402C350.999 198.379 351.475 194.784 349.619 192.189C348.095 190.023 345.333 189.118 342.81 189.904L340.858 190.522L328.288 202.616C327.479 203.402 327.288 204.64 327.86 205.616C328.431 206.639 329.645 207.092 330.764 206.758L347.143 201.545Z" fill="#D6F5FF"/>
<path d="M347.474 205.805L348.854 204.662C351.33 202.639 351.806 199.044 349.95 196.449C348.426 194.283 345.664 193.378 343.141 194.164L341.189 194.783L328.619 206.876C327.81 207.662 327.619 208.9 328.191 209.876C328.762 210.9 329.976 211.352 331.095 211.019L347.474 205.805Z" fill="white"/>
<path d="M330.001 208.139C328.691 208.139 327.429 207.449 326.739 206.258C325.906 204.782 326.168 202.902 327.406 201.711L340.19 189.403L342.427 188.689C345.475 187.713 348.784 188.832 350.641 191.427C352.855 194.546 352.283 198.902 349.307 201.354L347.498 202.711L331.119 207.925C330.762 208.091 330.381 208.139 330.001 208.139ZM341.523 191.665L329.167 203.544C328.763 203.925 328.691 204.52 328.953 205.02C329.239 205.52 329.834 205.758 330.358 205.568L346.522 200.426L347.712 199.45C349.665 197.855 350.045 194.998 348.569 192.927C347.355 191.213 345.189 190.475 343.189 191.117L341.523 191.665Z" fill="black"/>
<path d="M320.933 229.945L286.509 250.013L253.775 231.278L288.199 211.209L320.933 229.945ZM286.914 240.848L305.102 230.254L287.795 220.351L269.607 230.944L286.914 240.848Z" fill="white"/>
<path d="M320.864 233.825L286.44 253.894L253.706 235.158L288.13 215.089L320.864 233.825ZM286.844 244.728L305.032 234.134L287.725 224.231L269.537 234.825L286.844 244.728Z" fill="#DFF4FF"/>
<path d="M253.775 231.254V240.824L286.533 259.56V249.989L253.775 231.254Z" fill="white"/>
<path d="M320.931 229.944V239.49L286.531 259.559V249.989L320.931 229.944Z" fill="black"/>
<path d="M287.795 220.351V229.921L296.817 235.087L305.102 230.254L287.795 220.351Z" fill="white"/>
<path d="M269.605 230.944L287.793 220.351V229.921L277.89 235.682L269.605 230.944Z" fill="black"/>
<path d="M307.103 230.23L288.796 219.755L287.796 219.184L286.796 219.755L267.608 230.944L286.915 241.99L307.103 230.23ZM296.819 233.92L288.796 229.325V222.04L303.104 230.23L296.819 233.92ZM271.608 230.944L286.82 222.088V229.349L277.916 234.539L271.608 230.944ZM279.892 235.681L287.82 231.063L294.843 235.086L286.915 239.705L279.892 235.681Z" fill="black"/>
<path d="M321.931 240.062V230.492V229.349L320.931 228.778L288.197 210.042L253.773 230.111L252.773 230.683V231.825V241.395L286.507 260.702L321.931 240.062ZM319.955 231.659V238.919L287.531 257.822V250.561L300.243 243.157L319.955 231.659ZM255.773 231.254L288.197 212.352L318.931 229.945L299.124 241.491L286.507 248.847L259.368 233.325L255.773 231.254ZM254.773 240.253V232.992L269.866 241.61L285.531 250.561V257.845L254.773 240.253Z" fill="black"/>
</svg>
