<svg width="49" height="49" viewBox="0 0 49 49" fill="none" xmlns="http://www.w3.org/2000/svg">
<path d="M38.8333 3C36.9326 3 35.1097 3.75506 33.7657 5.09907C32.4217 6.44308 31.6667 8.26595 31.6667 10.1667V38.8333C31.6667 40.7341 32.4217 42.5569 33.7657 43.9009C35.1097 45.2449 36.9326 46 38.8333 46C40.7341 46 42.5569 45.2449 43.9009 43.9009C45.2449 42.5569 46 40.7341 46 38.8333C46 36.9326 45.2449 35.1097 43.9009 33.7657C42.5569 32.4217 40.7341 31.6667 38.8333 31.6667H10.1667C8.26595 31.6667 6.44308 32.4217 5.09907 33.7657C3.75506 35.1097 3 36.9326 3 38.8333C3 40.7341 3.75506 42.5569 5.09907 43.9009C6.44308 45.2449 8.26595 46 10.1667 46C12.0674 46 13.8903 45.2449 15.2343 43.9009C16.5783 42.5569 17.3333 40.7341 17.3333 38.8333V10.1667C17.3333 8.26595 16.5783 6.44308 15.2343 5.09907C13.8903 3.75506 12.0674 3 10.1667 3C8.26595 3 6.44308 3.75506 5.09907 5.09907C3.75506 6.44308 3 8.26595 3 10.1667C3 12.0674 3.75506 13.8903 5.09907 15.2343C6.44308 16.5783 8.26595 17.3333 10.1667 17.3333H38.8333C40.7341 17.3333 42.5569 16.5783 43.9009 15.2343C45.2449 13.8903 46 12.0674 46 10.1667C46 8.26595 45.2449 6.44308 43.9009 5.09907C42.5569 3.75506 40.7341 3 38.8333 3Z" stroke="#005986" stroke-width="4.00478" stroke-linecap="round" stroke-linejoin="round"/>
</svg>
