<svg width="44" height="44" viewBox="0 0 44 44" fill="none" xmlns="http://www.w3.org/2000/svg">
<g clip-path="url(#clip0)">
<path d="M39.5028 7.12472L22.6591 0.131388C22.2371 -0.0437529 21.7628 -0.0438389 21.3409 0.131388L4.4972 7.12472C3.85567 7.39113 3.4375 8.01744 3.4375 8.71208V17.2134C3.4375 28.9192 10.5126 39.4489 21.3505 43.8725C21.7668 44.0424 22.2332 44.0424 22.6495 43.8725C33.4872 39.449 40.5625 28.9193 40.5625 17.2134V8.71208C40.5625 8.01744 40.1444 7.39113 39.5028 7.12472ZM37.125 17.2134C37.125 27.1646 31.2812 36.3253 22 40.4143C12.9668 36.4345 6.875 27.4342 6.875 17.2134V9.85951L22 3.57972L37.125 9.85951V17.2134ZM20.1003 23.0068L27.4878 15.6194C28.159 14.9482 29.2472 14.9481 29.9185 15.6194C30.5897 16.2906 30.5896 17.3789 29.9184 18.05L21.3156 26.6528C20.6442 27.3242 19.556 27.3239 18.8849 26.6528L14.0815 21.8494C13.4103 21.1782 13.4103 20.0899 14.0815 19.4188C14.7528 18.7476 15.841 18.7475 16.5122 19.4188L20.1003 23.0068Z" fill="#005986"/>
</g>
<defs>
<clipPath id="clip0">
<rect width="44" height="44" fill="white"/>
</clipPath>
</defs>
</svg>
